<svg width="26" height="26" viewBox="0 0 26 26" fill="none" xmlns="http://www.w3.org/2000/svg">
<path d="M17.9415 1.30005C17.9959 1.30005 18.0504 1.30005 18.1079 1.30005C18.2415 2.95027 17.6116 4.18331 16.8461 5.07623C16.095 5.96299 15.0664 6.82304 13.4029 6.69254C13.2919 5.06596 13.9228 3.92437 14.6873 3.0335C15.3963 2.20325 16.6961 1.46445 17.9415 1.30005Z" fill="#151515"/>
<path d="M22.9771 18.4764C22.9771 18.4929 22.9771 18.5072 22.9771 18.5227C22.5095 19.9386 21.8427 21.1521 21.0289 22.2783C20.286 23.3007 19.3756 24.6765 17.75 24.6765C16.3454 24.6765 15.4124 23.7733 13.9728 23.7487C12.45 23.724 11.6126 24.5039 10.2203 24.7002C10.061 24.7002 9.90172 24.7002 9.74554 24.7002C8.72314 24.5522 7.89803 23.7425 7.29692 23.013C5.52443 20.8572 4.15473 18.0726 3.8999 14.5091C3.8999 14.1597 3.8999 13.8114 3.8999 13.4621C4.00779 10.9117 5.247 8.83816 6.89413 7.83323C7.76342 7.29891 8.95844 6.84372 10.2891 7.04717C10.8594 7.13554 11.442 7.33077 11.9527 7.52394C12.4366 7.70993 13.0419 8.03976 13.6152 8.0223C14.0036 8.01099 14.39 7.80857 14.7815 7.66574C15.9282 7.25165 17.0523 6.77693 18.534 6.9999C20.3147 7.26912 21.5786 8.06032 22.3595 9.28102C20.8532 10.2397 19.6623 11.6844 19.8657 14.1515C20.0465 16.3926 21.3495 17.7037 22.9771 18.4764Z" fill="#151515"/>
</svg>
