<svg width="76" height="77" viewBox="0 0 76 77" fill="none" xmlns="http://www.w3.org/2000/svg">
<path d="M66.0158 9.17084C66.0158 12.3983 65.2578 14.7577 63.9742 16.4448C63.9497 16.4815 63.9375 16.5059 63.913 16.5304C61.248 19.9779 56.4312 20.6136 51.6634 20.149C47.568 19.7578 43.5093 18.5597 40.8686 17.6429C41.3087 16.6404 41.5655 15.3934 41.5655 14.0609C41.5655 11.4325 40.5752 9.19529 39.1693 8.3273C44.6584 4.90426 66.0035 -7.68764 66.0158 9.17084Z" fill="#8DD6DE"/>
<path d="M41.442 15.5685C41.3271 16.3253 41.1376 17.0331 40.8687 17.6432C43.5093 18.56 47.568 19.7581 51.6635 20.1493C56.4313 20.6139 61.248 19.9782 63.9131 16.5307C63.9375 16.5062 63.9497 16.4818 63.9742 16.4451C65.2578 14.758 66.0158 12.3986 66.0158 9.17112C66.0146 8.05986 65.9168 7.08429 65.7407 6.21875C61.6807 14.4609 50.4752 16.0245 41.442 15.5685Z" fill="#8CB8BD"/>
<path d="M9.78011 9.17112C9.81678 -7.65068 31.1619 4.929 36.6265 8.32759C35.2206 9.19557 34.2304 11.4328 34.2304 14.0612C34.2304 15.3937 34.4871 16.6407 34.9272 17.6432C32.2866 18.56 28.2279 19.7581 24.1324 20.1493C19.3524 20.6139 14.5235 19.9782 11.8584 16.5062C10.5625 14.8069 9.76788 12.4352 9.78011 9.17112Z" fill="#8DD6DE"/>
<path d="M11.153 3.40186C10.2911 4.73684 9.78622 6.60851 9.78011 9.1709C9.76788 12.435 10.5625 14.8067 11.8584 16.506C14.5235 19.9779 19.3524 20.6136 24.1324 20.1491C28.2279 19.7579 32.2866 18.5598 34.9272 17.6429C34.6461 17.0036 34.4517 16.2578 34.3392 15.4607C24.9833 15.1123 15.8548 11.6196 11.153 3.40186Z" fill="#8CB8BD"/>
<path d="M37.898 20.1734C39.9235 20.1734 41.5655 17.4367 41.5655 14.0608C41.5655 10.6849 39.9235 7.94824 37.898 7.94824C35.8724 7.94824 34.2304 10.6849 34.2304 14.0608C34.2304 17.4367 35.8724 20.1734 37.898 20.1734Z" fill="#8DD6DE"/>
<path d="M41.5655 14.0608C41.5655 17.4349 39.9273 20.1734 37.898 20.1734C35.8686 20.1734 34.2304 17.4349 34.2304 14.0608C34.2304 13.4251 34.2915 12.8138 34.4016 12.2393C34.8661 14.7087 36.2598 16.5058 37.898 16.5058C39.5361 16.5058 40.9298 14.7087 41.3943 12.2393C41.5044 12.8138 41.5655 13.4251 41.5655 14.0608Z" fill="#8DD6DE"/>
<path d="M45.233 34.8433H49.6341L49.7196 34.8311C50.1597 37.2883 50.3309 40.1245 50.1231 43.4009L53.7906 39.7333L58.6807 44.6234C58.6807 44.6234 58.864 40.2712 57.886 34.8433H57.8983H72.1283V73.9638C72.1283 75.3085 71.0281 76.4088 69.6833 76.4088H44.0105V34.8433H45.233Z" fill="#E2C285"/>
<path d="M31.7854 34.8433V76.4088H6.11257C4.7678 76.4088 3.66754 75.3085 3.66754 73.9638V34.8433H17.8976H17.9098C16.9318 40.2712 17.1152 44.6234 17.1152 44.6234L22.0053 39.7333L25.6728 43.4009C25.465 40.1245 25.6361 37.2883 26.0762 34.8311L26.1618 34.8433H30.5629H31.7854Z" fill="#E2C285"/>
<path d="M31.7854 34.8438H44.0105V76.4092H31.7854V34.8438Z" fill="#8DD6DE"/>
<path d="M17.9098 34.8438C17.6776 36.1396 17.5064 37.3866 17.3964 38.5113H3.66754V34.8438H17.9098Z" fill="#BC9853"/>
<path d="M31.7854 34.8433V38.5108H25.6606C25.7217 37.1905 25.8684 35.968 26.0762 34.8311L26.1618 34.8433H31.7854Z" fill="#BC9853"/>
<path d="M31.7854 34.8438H44.0105V38.5113H31.7854V34.8438Z" fill="#8CB8BD"/>
<path d="M50.1353 38.5108H44.0105V34.8433H49.6341L49.7196 34.8311C49.9275 35.968 50.0742 37.1905 50.1353 38.5108Z" fill="#BC9853"/>
<path d="M75.7959 17.7533V33.6215C75.7959 34.2939 75.2458 34.844 74.5734 34.844H72.1283H57.8983H57.8861C57.0425 30.0151 55.2699 24.3549 51.6635 20.1494C56.4313 20.614 61.248 19.9783 63.913 16.5308H74.5734C75.2458 16.5308 75.7959 17.0809 75.7959 17.7533Z" fill="#E2C285"/>
<path d="M49.7197 34.8313L49.6341 34.8435H45.233V24.4644C47.1035 26.7505 48.9006 30.0757 49.7197 34.8313Z" fill="#E2C285"/>
<path d="M75.7959 17.7533V33.6215C75.7959 34.2939 75.2458 34.844 74.5734 34.844H57.8861C57.7394 34.0494 57.5804 33.2303 57.3848 32.399H69.6173C71.6797 32.399 73.3509 30.7278 73.3509 28.6654V16.5308H74.5734C75.2458 16.5308 75.7959 17.0809 75.7959 17.7533Z" fill="#E2C285"/>
<path d="M49.7197 34.8312L49.6341 34.8435H45.233V32.3984H49.194C49.4018 33.1686 49.573 33.9755 49.7197 34.8312Z" fill="#E2C285"/>
<path d="M30.5629 24.4644V34.8435H26.1618L26.0762 34.8313C26.8953 30.0757 28.6924 26.7505 30.5629 24.4644Z" fill="#E2C285"/>
<path d="M11.8584 16.5059C14.5235 19.9778 19.3524 20.6135 24.1324 20.149C20.526 24.3544 18.7534 30.0146 17.9098 34.8436H17.8976H3.66754H1.22251C0.550132 34.8436 0 34.2934 0 33.6211V17.7284C0 17.056 0.550132 16.5059 1.22251 16.5059H11.8584Z" fill="#E2C285"/>
<path d="M31.7854 71.5195V76.4096H6.11257C4.7678 76.4096 3.66754 75.3093 3.66754 73.9646V71.5195H31.7854Z" fill="#BC9853"/>
<path d="M31.7854 71.5195H44.0105V76.4096H31.7854V71.5195Z" fill="#8CB8BD"/>
<path d="M36.6754 19.8315C37.0544 20.0516 37.4701 20.1738 37.898 20.1738C38.3258 20.1738 38.7293 20.0516 39.1082 19.8315C39.1082 19.8315 42.2746 20.8707 45.233 24.4649V34.844H44.0105H31.7854H30.5629V24.4649C33.5091 20.8707 36.6754 19.8315 36.6754 19.8315Z" fill="#89CBD2"/>
<path d="M30.5629 32.3984V34.8435H26.1618L26.0762 34.8312C26.2229 33.9755 26.3941 33.1686 26.6019 32.3984H30.5629Z" fill="#E2C285"/>
<path d="M18.4111 32.3984C18.2155 33.2297 18.0565 34.0488 17.9098 34.8435H1.22251C0.550132 34.8435 0 34.2933 0 33.621V32.3984H18.4111Z" fill="#E2C285"/>
<path d="M30.5629 32.3984H45.233V34.8435H30.5629V32.3984Z" fill="#8CB8BD"/>
<path d="M45.233 24.4649V28.1324C42.2746 24.5382 39.1082 23.4991 39.1082 23.4991C38.7293 23.7191 38.3258 23.8414 37.898 23.8414C37.4701 23.8414 37.0544 23.7191 36.6754 23.4991C36.6754 23.4991 33.5091 24.5382 30.5629 28.1324V24.4649C33.5091 20.8707 36.6754 19.8315 36.6754 19.8315C37.0544 20.0516 37.4701 20.1738 37.898 20.1738C38.3258 20.1738 38.7293 20.0516 39.1082 19.8315C39.1082 19.8315 42.2746 20.8707 45.233 24.4649Z" fill="#8CB8BD"/>
<path d="M57.8861 34.8438C58.8641 40.2718 58.6807 44.624 58.6807 44.624L53.7906 39.7339L50.1231 43.4014C50.3309 40.1251 50.1598 37.2889 49.7197 34.8316C48.9006 30.076 47.1035 26.7508 45.233 24.4647C42.2746 20.8705 39.1082 19.8314 39.1082 19.8314C39.8295 19.4157 40.4408 18.6455 40.8687 17.6431C43.5093 18.56 47.568 19.758 51.6635 20.1492C55.2699 24.3547 57.0425 30.0149 57.8861 34.8438Z" fill="#8DD6DE"/>
<path d="M52.6353 44.3904C52.6708 43.1753 52.6512 42.0249 52.5803 40.9442L53.7906 39.7339L56.2356 42.1789L53.6072 44.8073C53.2441 45.1704 52.6207 44.9039 52.6353 44.3904Z" fill="#BC9853"/>
<path d="M57.886 34.8438C58.1183 36.1396 58.2895 37.3866 58.3995 38.5113H58.4056C58.7858 42.1043 58.6807 44.6239 58.6807 44.6239L59.9215 45.8647C60.3714 46.3146 61.1428 45.9931 61.1306 45.3562C61.1 43.8146 60.9729 41.3585 60.534 38.5113H61.1257C64.5011 38.5113 67.2383 41.2485 67.2383 44.6239V69.0742C67.2383 70.425 66.1441 71.5192 64.7932 71.5192H44.0105V76.4092H69.6833C71.0281 76.4092 72.1283 75.309 72.1283 73.9642V34.8438H57.886Z" fill="#BC9853"/>
<path d="M59.8299 34.8436H57.8861C57.0425 30.0146 55.2699 24.3544 51.6635 20.1489C52.5437 20.2345 53.4117 20.2834 54.2796 20.2834C56.7369 24.6111 59.0352 31.4327 59.8299 34.8436Z" fill="#E2C285"/>
<path d="M54.1818 23.8045C50.0131 23.4867 45.8932 22.6921 42.6658 21.9219C40.6853 20.3448 39.1082 19.8314 39.1082 19.8314C39.8295 19.4157 40.4408 18.6455 40.8687 17.6431C43.5093 18.56 47.568 19.758 51.6635 20.1492C52.6293 21.2739 53.4728 22.5087 54.1818 23.8045Z" fill="#8CB8BD"/>
<path d="M34.9272 17.6431C35.3551 18.6333 35.9663 19.4035 36.6754 19.8314C36.6754 19.8314 33.5091 20.8705 30.5628 24.4647C28.6924 26.7508 26.8953 30.076 26.0762 34.8316C25.6361 37.2889 25.4649 40.1251 25.6728 43.4014L22.0052 39.7339L17.1152 44.624C17.1152 44.624 16.9318 40.2718 17.9098 34.8438C18.7533 30.0149 20.526 24.3547 24.1324 20.1492C28.2278 19.758 32.2866 18.56 34.9272 17.6431Z" fill="#8DD6DE"/>
<path d="M27.2987 37.2761C26.9198 39.391 26.7401 41.7859 26.8305 44.4999C26.8464 44.9755 26.2828 45.2322 25.9466 44.8972L23.2278 42.1784L19.2143 46.1919C18.8854 46.5207 18.3218 46.2934 18.3255 45.8276C18.3304 45.1943 18.3512 44.3434 18.4111 43.3275L22.0053 39.7333L25.6728 43.4009C25.465 40.1245 25.6361 37.2883 26.0762 34.8311L26.1618 34.8433H27.8244C27.6166 35.6135 27.4454 36.4203 27.2987 37.2761Z" fill="#BC9853"/>
<path d="M30.5629 24.4644V28.5842C29.4993 30.2346 28.509 32.3007 27.8244 34.8435H26.1618L26.0762 34.8313C26.8953 30.0757 28.6924 26.7505 30.5629 24.4644Z" fill="#E2C285"/>
<path d="M36.6754 19.8314C36.6754 19.8314 35.0984 20.3448 33.1301 21.9219C29.9027 22.6921 25.7828 23.4867 21.614 23.8045C22.3231 22.5087 23.1666 21.2739 24.1324 20.1492C28.2278 19.758 32.2866 18.56 34.9272 17.6431C35.3551 18.6333 35.9664 19.4035 36.6754 19.8314Z" fill="#8CB8BD"/>
<path d="M36.915 11.0449C36.1277 11.0449 35.8869 12.8384 36.6754 12.8384C37.4615 12.8384 37.7023 11.0449 36.915 11.0449Z" fill="#A0F2FB"/>
<path d="M4.2152 18.2542C3.24819 18.1026 2.4939 18.863 2.10759 19.8312C1.56234 21.198 1.42298 22.9927 2.78975 23.2066C3.80444 23.3655 3.53915 21.9804 3.90591 20.9449C4.38146 19.599 5.53429 18.4596 4.2152 18.2542Z" fill="#F7EDC6"/>
<path d="M16.1849 3.08545C13.8254 3.08545 11.0833 6.7261 13.4477 6.7261C15.8071 6.7261 18.5492 3.08545 16.1849 3.08545Z" fill="#A0F2FB"/>
<path d="M2.78002 23.6821C1.99394 23.6821 1.9915 24.9046 2.78002 24.9046C3.56732 24.9046 3.56854 23.6821 2.78002 23.6821Z" fill="#F7EDC6"/>
</svg>
