<svg width="22" height="22" viewBox="0 0 22 22" fill="none" xmlns="http://www.w3.org/2000/svg">
<path d="M19.2422 5.6875H16.8578C17.2264 5.1975 17.4453 4.58871 17.4453 3.92969C17.4453 2.31426 16.1311 1 14.5156 1C13.5425 1 12.825 1.34863 12.2575 2.09715C11.7827 2.7234 11.4355 3.59777 11 4.70254C10.5645 3.59773 10.2173 2.7234 9.74254 2.09715C9.175 1.34863 8.45746 1 7.48438 1C5.86895 1 4.55469 2.31426 4.55469 3.92969C4.55469 4.58871 4.77355 5.1975 5.14223 5.6875H2.75781C1.78855 5.6875 1 6.47605 1 7.44531V8.61719C1 9.38105 1.48988 10.0323 2.17188 10.2742V19.2422C2.17188 20.2114 2.96043 21 3.92969 21H18.0703C19.0396 21 19.8281 20.2114 19.8281 19.2422V10.2742C20.5101 10.0323 21 9.38105 21 8.61719V7.44531C21 6.47605 20.2114 5.6875 19.2422 5.6875ZM12.0755 5.16953C12.9732 2.89227 13.3144 2.17188 14.5156 2.17188C15.4849 2.17188 16.2734 2.96043 16.2734 3.92969C16.2734 4.89895 15.4849 5.6875 14.5156 5.6875H11.8706C11.9424 5.50723 12.0109 5.33367 12.0755 5.16953ZM7.48438 2.17188C8.68559 2.17188 9.02684 2.89227 9.92445 5.16953C9.98914 5.33367 10.0576 5.50723 10.1294 5.6875H7.48438C6.51512 5.6875 5.72656 4.89895 5.72656 3.92969C5.72656 2.96043 6.51512 2.17188 7.48438 2.17188ZM8.65625 19.8281H3.92969C3.6066 19.8281 3.34375 19.5653 3.34375 19.2422V10.375H8.65625V19.8281ZM8.65625 9.20312H2.75781C2.43473 9.20312 2.17188 8.94027 2.17188 8.61719V7.44531C2.17188 7.12223 2.43473 6.85938 2.75781 6.85938H8.65625V9.20312ZM12.1719 19.8281H9.82812V6.85938C9.9509 6.85938 11.4984 6.85938 12.1719 6.85938V19.8281ZM18.6562 19.2422C18.6562 19.5653 18.3934 19.8281 18.0703 19.8281H13.3438V10.375H18.6562V19.2422ZM19.8281 8.61719C19.8281 8.94027 19.5653 9.20312 19.2422 9.20312H13.3438V6.85938H19.2422C19.5653 6.85938 19.8281 7.12223 19.8281 7.44531V8.61719Z" fill="#858585"/>
</svg>
