<?xml version="1.0" encoding="UTF-8"?>
<svg xmlns="http://www.w3.org/2000/svg" version="1.1" width="300" height="300" viewBox="0 0 300 300"><rect x="0" y="0" width="300" height="300" fill="#fefefe"/><g transform="scale(3.529)"><g transform="translate(4,4)"><path fill-rule="evenodd" d="M11 0L11 1L12 1L12 3L11 3L11 5L12 5L12 7L11 7L11 6L10 6L10 4L8 4L8 5L9 5L9 6L8 6L8 7L9 7L9 8L10 8L10 9L11 9L11 8L12 8L12 7L13 7L13 6L14 6L14 7L15 7L15 8L18 8L18 7L19 7L19 6L20 6L20 8L21 8L21 9L18 9L18 10L21 10L21 11L22 11L22 12L21 12L21 14L20 14L20 15L19 15L19 16L20 16L20 15L22 15L22 16L21 16L21 17L20 17L20 18L19 18L19 17L18 17L18 18L19 18L19 20L20 20L20 19L21 19L21 21L20 21L20 22L19 22L19 21L18 21L18 22L19 22L19 24L20 24L20 23L21 23L21 21L22 21L22 23L23 23L23 21L24 21L24 22L25 22L25 23L24 23L24 24L21 24L21 25L20 25L20 26L19 26L19 25L18 25L18 26L17 26L17 27L18 27L18 26L19 26L19 28L20 28L20 27L21 27L21 25L24 25L24 30L22 30L22 29L23 29L23 27L22 27L22 29L20 29L20 30L18 30L18 31L19 31L19 33L14 33L14 32L15 32L15 30L16 30L16 31L17 31L17 28L16 28L16 29L14 29L14 28L15 28L15 27L16 27L16 24L15 24L15 22L17 22L17 21L14 21L14 20L15 20L15 19L14 19L14 18L17 18L17 17L15 17L15 16L14 16L14 15L15 15L15 14L17 14L17 13L15 13L15 12L14 12L14 13L13 13L13 14L14 14L14 15L13 15L13 16L12 16L12 14L10 14L10 12L12 12L12 10L11 10L11 11L10 11L10 10L9 10L9 12L8 12L8 11L7 11L7 10L6 10L6 9L7 9L7 8L6 8L6 9L5 9L5 8L4 8L4 10L3 10L3 11L2 11L2 12L1 12L1 11L0 11L0 13L4 13L4 15L2 15L2 16L1 16L1 15L0 15L0 17L2 17L2 20L1 20L1 19L0 19L0 21L1 21L1 22L0 22L0 23L1 23L1 22L2 22L2 25L1 25L1 24L0 24L0 25L1 25L1 27L0 27L0 29L1 29L1 28L3 28L3 27L4 27L4 29L3 29L3 30L1 30L1 31L0 31L0 36L1 36L1 40L3 40L3 37L2 37L2 36L3 36L3 34L4 34L4 35L5 35L5 36L6 36L6 37L4 37L4 39L5 39L5 40L6 40L6 41L4 41L4 43L5 43L5 44L6 44L6 45L4 45L4 51L5 51L5 52L4 52L4 53L2 53L2 52L3 52L3 49L2 49L2 48L3 48L3 45L2 45L2 44L3 44L3 41L1 41L1 42L2 42L2 44L1 44L1 43L0 43L0 44L1 44L1 45L0 45L0 46L1 46L1 47L2 47L2 48L1 48L1 49L0 49L0 50L1 50L1 51L2 51L2 52L1 52L1 53L0 53L0 54L1 54L1 55L2 55L2 56L1 56L1 57L0 57L0 58L1 58L1 59L3 59L3 60L4 60L4 61L2 61L2 60L0 60L0 61L2 61L2 62L3 62L3 63L1 63L1 62L0 62L0 65L1 65L1 67L2 67L2 65L3 65L3 66L4 66L4 68L1 68L1 69L5 69L5 67L8 67L8 64L6 64L6 63L7 63L7 62L5 62L5 61L7 61L7 60L5 60L5 59L4 59L4 58L1 58L1 57L3 57L3 54L4 54L4 55L5 55L5 54L6 54L6 55L8 55L8 57L7 57L7 56L5 56L5 58L6 58L6 59L7 59L7 58L9 58L9 55L8 55L8 54L10 54L10 52L11 52L11 51L13 51L13 52L12 52L12 54L11 54L11 55L13 55L13 56L11 56L11 57L12 57L12 58L10 58L10 59L9 59L9 62L8 62L8 63L9 63L9 62L10 62L10 59L11 59L11 61L12 61L12 62L13 62L13 63L12 63L12 65L9 65L9 67L10 67L10 70L9 70L9 69L8 69L8 68L6 68L6 69L8 69L8 70L9 70L9 71L10 71L10 74L8 74L8 75L10 75L10 77L11 77L11 76L12 76L12 77L13 77L13 76L14 76L14 75L12 75L12 74L11 74L11 71L12 71L12 72L13 72L13 71L14 71L14 74L15 74L15 73L16 73L16 75L20 75L20 76L19 76L19 77L22 77L22 76L21 76L21 75L20 75L20 72L21 72L21 74L22 74L22 75L23 75L23 73L22 73L22 70L23 70L23 68L24 68L24 71L23 71L23 72L24 72L24 74L25 74L25 76L24 76L24 77L26 77L26 76L27 76L27 77L28 77L28 76L29 76L29 77L30 77L30 74L29 74L29 72L30 72L30 73L31 73L31 74L32 74L32 75L31 75L31 76L32 76L32 77L33 77L33 76L34 76L34 75L35 75L35 76L36 76L36 77L37 77L37 76L38 76L38 75L39 75L39 74L38 74L38 73L37 73L37 72L38 72L38 71L39 71L39 73L40 73L40 75L41 75L41 74L42 74L42 75L43 75L43 74L44 74L44 75L45 75L45 74L46 74L46 73L51 73L51 72L52 72L52 73L53 73L53 74L52 74L52 75L51 75L51 74L50 74L50 75L51 75L51 76L52 76L52 77L55 77L55 76L56 76L56 75L57 75L57 77L62 77L62 76L64 76L64 77L68 77L68 76L69 76L69 74L70 74L70 75L71 75L71 76L70 76L70 77L71 77L71 76L72 76L72 77L73 77L73 76L75 76L75 77L77 77L77 74L76 74L76 73L77 73L77 72L76 72L76 71L75 71L75 70L74 70L74 68L75 68L75 69L77 69L77 68L76 68L76 67L75 67L75 66L74 66L74 68L72 68L72 67L71 67L71 66L72 66L72 65L73 65L73 64L72 64L72 63L71 63L71 62L72 62L72 61L73 61L73 63L75 63L75 64L74 64L74 65L77 65L77 62L76 62L76 63L75 63L75 60L76 60L76 61L77 61L77 58L76 58L76 57L77 57L77 54L76 54L76 53L77 53L77 50L76 50L76 49L77 49L77 46L76 46L76 45L77 45L77 42L76 42L76 41L77 41L77 38L76 38L76 37L77 37L77 36L76 36L76 35L77 35L77 34L76 34L76 33L77 33L77 30L76 30L76 29L77 29L77 27L76 27L76 29L75 29L75 30L76 30L76 31L74 31L74 29L73 29L73 27L75 27L75 26L73 26L73 25L75 25L75 24L76 24L76 25L77 25L77 22L76 22L76 21L77 21L77 18L76 18L76 17L77 17L77 14L76 14L76 13L77 13L77 10L76 10L76 8L75 8L75 10L76 10L76 11L75 11L75 12L74 12L74 11L73 11L73 10L74 10L74 9L73 9L73 8L72 8L72 9L69 9L69 8L68 8L68 7L69 7L69 6L68 6L68 7L67 7L67 5L69 5L69 1L68 1L68 4L66 4L66 3L65 3L65 2L64 2L64 0L59 0L59 2L58 2L58 5L57 5L57 4L56 4L56 3L57 3L57 2L56 2L56 1L57 1L57 0L54 0L54 1L53 1L53 0L50 0L50 1L49 1L49 0L48 0L48 1L47 1L47 0L46 0L46 1L47 1L47 2L46 2L46 3L45 3L45 2L44 2L44 0L42 0L42 1L41 1L41 2L40 2L40 1L39 1L39 0L38 0L38 1L37 1L37 2L36 2L36 1L35 1L35 0L34 0L34 1L33 1L33 2L32 2L32 1L31 1L31 0L30 0L30 1L29 1L29 0L28 0L28 1L27 1L27 2L28 2L28 3L26 3L26 4L25 4L25 3L24 3L24 2L25 2L25 1L24 1L24 0L21 0L21 1L20 1L20 0L18 0L18 1L13 1L13 0ZM8 1L8 2L9 2L9 3L10 3L10 1ZM21 1L21 2L20 2L20 3L21 3L21 4L19 4L19 3L18 3L18 2L17 2L17 3L18 3L18 4L19 4L19 5L20 5L20 6L21 6L21 8L22 8L22 5L23 5L23 10L22 10L22 11L23 11L23 12L25 12L25 13L24 13L24 14L22 14L22 15L24 15L24 14L25 14L25 13L27 13L27 14L28 14L28 15L25 15L25 16L23 16L23 17L24 17L24 18L25 18L25 17L27 17L27 18L29 18L29 19L30 19L30 20L28 20L28 22L27 22L27 23L25 23L25 24L28 24L28 22L29 22L29 23L30 23L30 24L29 24L29 25L30 25L30 26L29 26L29 27L30 27L30 28L29 28L29 29L30 29L30 30L28 30L28 29L27 29L27 30L24 30L24 31L23 31L23 32L22 32L22 33L23 33L23 34L22 34L22 35L23 35L23 36L21 36L21 33L20 33L20 38L21 38L21 39L22 39L22 40L24 40L24 39L25 39L25 41L26 41L26 42L24 42L24 41L23 41L23 42L24 42L24 43L23 43L23 44L24 44L24 46L25 46L25 44L24 44L24 43L26 43L26 46L27 46L27 44L28 44L28 46L29 46L29 50L30 50L30 51L31 51L31 53L29 53L29 51L28 51L28 52L27 52L27 51L26 51L26 52L27 52L27 53L26 53L26 54L27 54L27 58L22 58L22 56L21 56L21 55L23 55L23 57L25 57L25 56L24 56L24 55L25 55L25 54L24 54L24 52L23 52L23 54L22 54L22 52L21 52L21 55L20 55L20 54L19 54L19 52L20 52L20 51L23 51L23 50L22 50L22 48L21 48L21 47L23 47L23 48L24 48L24 47L23 47L23 46L22 46L22 44L21 44L21 47L19 47L19 46L16 46L16 47L15 47L15 46L13 46L13 47L11 47L11 46L12 46L12 44L13 44L13 45L15 45L15 44L16 44L16 45L20 45L20 42L21 42L21 43L22 43L22 41L20 41L20 42L19 42L19 41L18 41L18 42L19 42L19 43L17 43L17 44L16 44L16 43L15 43L15 44L13 44L13 43L14 43L14 38L15 38L15 40L16 40L16 39L17 39L17 40L19 40L19 37L18 37L18 36L19 36L19 34L18 34L18 35L17 35L17 34L16 34L16 36L17 36L17 37L15 37L15 35L14 35L14 34L13 34L13 33L11 33L11 34L10 34L10 32L11 32L11 30L10 30L10 28L11 28L11 29L12 29L12 32L14 32L14 31L13 31L13 29L12 29L12 27L11 27L11 26L13 26L13 25L12 25L12 24L11 24L11 23L5 23L5 22L7 22L7 21L5 21L5 20L10 20L10 19L5 19L5 18L7 18L7 17L6 17L6 16L9 16L9 18L10 18L10 17L11 17L11 16L9 16L9 15L6 15L6 14L7 14L7 13L5 13L5 16L4 16L4 17L3 17L3 18L4 18L4 19L3 19L3 20L2 20L2 22L3 22L3 23L5 23L5 24L10 24L10 25L9 25L9 26L10 26L10 27L9 27L9 29L6 29L6 30L5 30L5 29L4 29L4 30L3 30L3 31L1 31L1 32L2 32L2 33L5 33L5 32L4 32L4 30L5 30L5 31L6 31L6 32L9 32L9 33L6 33L6 34L5 34L5 35L6 35L6 36L7 36L7 37L6 37L6 38L5 38L5 39L6 39L6 40L7 40L7 41L6 41L6 42L5 42L5 43L6 43L6 44L8 44L8 43L9 43L9 46L10 46L10 47L9 47L9 48L11 48L11 49L10 49L10 50L9 50L9 52L8 52L8 51L6 51L6 52L5 52L5 53L6 53L6 54L8 54L8 53L9 53L9 52L10 52L10 50L12 50L12 48L13 48L13 50L15 50L15 51L14 51L14 52L13 52L13 54L14 54L14 52L15 52L15 53L17 53L17 50L15 50L15 49L18 49L18 54L19 54L19 55L18 55L18 58L19 58L19 59L18 59L18 62L19 62L19 63L18 63L18 66L19 66L19 67L17 67L17 68L16 68L16 67L15 67L15 66L14 66L14 63L17 63L17 62L14 62L14 59L13 59L13 58L12 58L12 61L13 61L13 62L14 62L14 63L13 63L13 65L12 65L12 66L10 66L10 67L13 67L13 69L12 69L12 68L11 68L11 69L12 69L12 70L14 70L14 71L15 71L15 72L16 72L16 73L18 73L18 74L19 74L19 73L18 73L18 72L19 72L19 71L21 71L21 70L19 70L19 71L18 71L18 69L17 69L17 68L19 68L19 69L22 69L22 68L23 68L23 67L24 67L24 64L25 64L25 68L26 68L26 67L27 67L27 66L28 66L28 65L29 65L29 66L30 66L30 67L31 67L31 65L30 65L30 64L29 64L29 63L28 63L28 62L30 62L30 63L31 63L31 61L32 61L32 65L34 65L34 66L32 66L32 68L31 68L31 69L30 69L30 68L29 68L29 67L28 67L28 68L29 68L29 70L30 70L30 71L32 71L32 72L31 72L31 73L32 73L32 72L33 72L33 73L34 73L34 74L33 74L33 75L32 75L32 76L33 76L33 75L34 75L34 74L35 74L35 75L36 75L36 76L37 76L37 75L38 75L38 74L37 74L37 75L36 75L36 74L35 74L35 73L36 73L36 72L37 72L37 71L38 71L38 70L39 70L39 69L40 69L40 68L41 68L41 69L42 69L42 70L41 70L41 71L42 71L42 72L41 72L41 73L42 73L42 74L43 74L43 73L44 73L44 72L46 72L46 70L45 70L45 71L44 71L44 70L43 70L43 69L44 69L44 68L46 68L46 67L44 67L44 66L43 66L43 65L44 65L44 64L45 64L45 65L46 65L46 64L47 64L47 68L48 68L48 67L51 67L51 69L52 69L52 68L53 68L53 67L54 67L54 68L55 68L55 69L54 69L54 70L53 70L53 71L52 71L52 70L51 70L51 71L52 71L52 72L53 72L53 71L54 71L54 72L55 72L55 73L54 73L54 74L53 74L53 75L52 75L52 76L53 76L53 75L54 75L54 76L55 76L55 75L56 75L56 74L57 74L57 75L58 75L58 76L60 76L60 75L62 75L62 74L60 74L60 73L58 73L58 74L57 74L57 71L58 71L58 72L59 72L59 71L60 71L60 72L61 72L61 70L63 70L63 71L62 71L62 72L63 72L63 75L64 75L64 76L65 76L65 75L64 75L64 74L65 74L65 73L67 73L67 71L68 71L68 67L70 67L70 66L71 66L71 65L72 65L72 64L71 64L71 65L70 65L70 64L69 64L69 63L70 63L70 62L71 62L71 61L72 61L72 60L73 60L73 61L74 61L74 60L75 60L75 59L76 59L76 58L75 58L75 57L76 57L76 56L75 56L75 55L76 55L76 54L75 54L75 53L76 53L76 52L75 52L75 51L76 51L76 50L75 50L75 49L76 49L76 48L75 48L75 47L76 47L76 46L75 46L75 45L76 45L76 44L75 44L75 43L76 43L76 42L75 42L75 41L76 41L76 40L75 40L75 39L76 39L76 38L75 38L75 33L76 33L76 32L75 32L75 33L74 33L74 36L71 36L71 34L73 34L73 33L71 33L71 32L70 32L70 30L71 30L71 31L72 31L72 32L73 32L73 31L72 31L72 29L68 29L68 28L67 28L67 27L66 27L66 29L67 29L67 30L69 30L69 31L68 31L68 32L69 32L69 33L66 33L66 34L65 34L65 33L64 33L64 32L65 32L65 31L64 31L64 30L65 30L65 29L64 29L64 28L65 28L65 27L64 27L64 26L67 26L67 25L66 25L66 24L67 24L67 23L66 23L66 24L65 24L65 23L64 23L64 22L65 22L65 21L67 21L67 22L68 22L68 23L70 23L70 24L71 24L71 23L70 23L70 22L71 22L71 21L72 21L72 24L73 24L73 23L74 23L74 24L75 24L75 23L76 23L76 22L75 22L75 21L76 21L76 20L75 20L75 19L76 19L76 18L75 18L75 17L76 17L76 16L75 16L75 15L76 15L76 14L75 14L75 13L76 13L76 12L75 12L75 13L74 13L74 12L73 12L73 11L72 11L72 10L73 10L73 9L72 9L72 10L71 10L71 11L70 11L70 10L69 10L69 9L68 9L68 8L67 8L67 7L66 7L66 6L65 6L65 5L66 5L66 4L65 4L65 3L64 3L64 2L63 2L63 1L60 1L60 2L61 2L61 3L59 3L59 5L60 5L60 6L59 6L59 7L58 7L58 6L57 6L57 5L56 5L56 6L55 6L55 5L52 5L52 6L51 6L51 7L52 7L52 8L51 8L51 9L50 9L50 10L49 10L49 9L48 9L48 10L47 10L47 9L46 9L46 10L45 10L45 11L44 11L44 10L43 10L43 9L44 9L44 8L45 8L45 7L46 7L46 6L45 6L45 5L46 5L46 4L47 4L47 3L46 3L46 4L45 4L45 3L44 3L44 4L43 4L43 3L42 3L42 2L43 2L43 1L42 1L42 2L41 2L41 3L40 3L40 2L39 2L39 1L38 1L38 2L39 2L39 3L38 3L38 4L37 4L37 3L36 3L36 2L35 2L35 1L34 1L34 2L33 2L33 3L32 3L32 2L31 2L31 1L30 1L30 2L29 2L29 1L28 1L28 2L29 2L29 3L28 3L28 4L29 4L29 5L30 5L30 6L29 6L29 7L30 7L30 8L29 8L29 9L30 9L30 10L28 10L28 11L24 11L24 4L23 4L23 2L22 2L22 1ZM48 1L48 2L49 2L49 3L48 3L48 4L51 4L51 3L52 3L52 4L53 4L53 3L54 3L54 4L55 4L55 3L56 3L56 2L55 2L55 1L54 1L54 2L53 2L53 1L52 1L52 2L51 2L51 1L50 1L50 2L49 2L49 1ZM66 1L66 2L67 2L67 1ZM13 2L13 3L14 3L14 4L13 4L13 5L14 5L14 6L15 6L15 7L16 7L16 6L15 6L15 5L17 5L17 4L15 4L15 3L16 3L16 2L15 2L15 3L14 3L14 2ZM21 2L21 3L22 3L22 2ZM30 2L30 3L29 3L29 4L30 4L30 5L31 5L31 6L30 6L30 7L31 7L31 8L32 8L32 9L31 9L31 10L30 10L30 11L29 11L29 12L28 12L28 14L30 14L30 16L31 16L31 15L32 15L32 17L34 17L34 15L33 15L33 12L36 12L36 13L34 13L34 14L36 14L36 15L35 15L35 16L36 16L36 17L35 17L35 18L36 18L36 19L35 19L35 20L36 20L36 21L35 21L35 22L32 22L32 20L33 20L33 21L34 21L34 20L33 20L33 18L31 18L31 17L30 17L30 19L31 19L31 22L30 22L30 21L29 21L29 22L30 22L30 23L33 23L33 24L32 24L32 25L33 25L33 26L32 26L32 27L31 27L31 26L30 26L30 27L31 27L31 28L32 28L32 29L31 29L31 30L30 30L30 31L28 31L28 32L26 32L26 37L25 37L25 35L24 35L24 34L25 34L25 31L24 31L24 32L23 32L23 33L24 33L24 34L23 34L23 35L24 35L24 36L23 36L23 37L21 37L21 38L22 38L22 39L24 39L24 38L27 38L27 37L28 37L28 38L29 38L29 39L28 39L28 40L26 40L26 41L28 41L28 42L29 42L29 43L28 43L28 44L29 44L29 46L30 46L30 45L31 45L31 46L32 46L32 47L30 47L30 50L32 50L32 51L35 51L35 52L34 52L34 53L31 53L31 55L30 55L30 56L29 56L29 57L28 57L28 58L27 58L27 60L26 60L26 59L25 59L25 60L24 60L24 61L23 61L23 59L22 59L22 58L21 58L21 57L19 57L19 58L21 58L21 61L19 61L19 62L21 62L21 65L19 65L19 66L21 66L21 68L22 68L22 66L23 66L23 64L24 64L24 63L23 63L23 62L24 62L24 61L25 61L25 60L26 60L26 61L27 61L27 60L28 60L28 61L29 61L29 60L30 60L30 61L31 61L31 60L32 60L32 59L33 59L33 58L34 58L34 59L35 59L35 58L36 58L36 59L37 59L37 60L36 60L36 61L34 61L34 63L33 63L33 64L34 64L34 63L35 63L35 65L36 65L36 67L35 67L35 66L34 66L34 67L33 67L33 68L32 68L32 69L31 69L31 70L32 70L32 71L33 71L33 72L34 72L34 71L35 71L35 72L36 72L36 71L37 71L37 70L38 70L38 69L37 69L37 68L38 68L38 67L39 67L39 66L40 66L40 67L41 67L41 68L42 68L42 67L43 67L43 68L44 68L44 67L43 67L43 66L42 66L42 65L41 65L41 64L42 64L42 63L43 63L43 64L44 64L44 63L45 63L45 64L46 64L46 63L47 63L47 64L48 64L48 65L49 65L49 66L50 66L50 65L51 65L51 66L54 66L54 67L55 67L55 68L57 68L57 69L56 69L56 71L57 71L57 70L58 70L58 71L59 71L59 70L58 70L58 69L59 69L59 68L60 68L60 69L61 69L61 68L62 68L62 69L63 69L63 68L64 68L64 69L65 69L65 70L64 70L64 71L63 71L63 72L64 72L64 73L65 73L65 72L66 72L66 71L65 71L65 70L67 70L67 69L66 69L66 67L67 67L67 64L66 64L66 63L67 63L67 62L68 62L68 61L67 61L67 60L66 60L66 59L67 59L67 58L68 58L68 59L69 59L69 60L70 60L70 61L69 61L69 62L70 62L70 61L71 61L71 60L72 60L72 59L71 59L71 58L72 58L72 57L73 57L73 58L74 58L74 57L75 57L75 56L74 56L74 55L73 55L73 56L72 56L72 55L71 55L71 54L72 54L72 53L73 53L73 54L74 54L74 53L75 53L75 52L74 52L74 51L73 51L73 50L74 50L74 49L75 49L75 48L74 48L74 47L73 47L73 46L74 46L74 45L75 45L75 44L74 44L74 43L73 43L73 42L74 42L74 41L75 41L75 40L74 40L74 39L73 39L73 38L74 38L74 37L73 37L73 38L72 38L72 37L71 37L71 36L69 36L69 38L68 38L68 37L67 37L67 36L68 36L68 35L70 35L70 34L68 34L68 35L67 35L67 34L66 34L66 35L65 35L65 34L64 34L64 35L63 35L63 32L64 32L64 31L63 31L63 30L61 30L61 32L58 32L58 31L59 31L59 30L58 30L58 29L59 29L59 28L60 28L60 29L61 29L61 28L62 28L62 29L63 29L63 28L64 28L64 27L63 27L63 26L62 26L62 25L63 25L63 24L64 24L64 25L65 25L65 24L64 24L64 23L63 23L63 22L62 22L62 21L63 21L63 20L64 20L64 21L65 21L65 20L66 20L66 19L67 19L67 20L68 20L68 21L71 21L71 20L72 20L72 19L73 19L73 20L74 20L74 21L73 21L73 22L74 22L74 23L75 23L75 22L74 22L74 21L75 21L75 20L74 20L74 19L73 19L73 18L74 18L74 17L75 17L75 16L74 16L74 15L73 15L73 14L74 14L74 13L73 13L73 14L72 14L72 13L71 13L71 12L72 12L72 11L71 11L71 12L70 12L70 11L69 11L69 10L68 10L68 9L67 9L67 8L66 8L66 7L65 7L65 6L64 6L64 8L62 8L62 7L63 7L63 6L62 6L62 5L64 5L64 4L62 4L62 5L61 5L61 4L60 4L60 5L61 5L61 6L60 6L60 7L59 7L59 8L58 8L58 7L57 7L57 6L56 6L56 7L55 7L55 6L54 6L54 7L53 7L53 6L52 6L52 7L53 7L53 8L52 8L52 9L53 9L53 8L54 8L54 9L55 9L55 8L56 8L56 9L57 9L57 8L58 8L58 9L59 9L59 8L60 8L60 9L61 9L61 10L60 10L60 11L59 11L59 10L56 10L56 11L55 11L55 10L52 10L52 11L51 11L51 10L50 10L50 11L49 11L49 10L48 10L48 11L49 11L49 12L48 12L48 13L47 13L47 12L46 12L46 11L47 11L47 10L46 10L46 11L45 11L45 12L44 12L44 11L43 11L43 10L42 10L42 9L41 9L41 8L42 8L42 7L43 7L43 8L44 8L44 7L45 7L45 6L44 6L44 7L43 7L43 5L41 5L41 6L40 6L40 5L39 5L39 4L40 4L40 3L39 3L39 4L38 4L38 5L39 5L39 6L38 6L38 7L37 7L37 6L36 6L36 5L35 5L35 4L36 4L36 3L35 3L35 2L34 2L34 3L33 3L33 4L34 4L34 5L33 5L33 6L32 6L32 5L31 5L31 4L32 4L32 3L31 3L31 2ZM50 2L50 3L51 3L51 2ZM52 2L52 3L53 3L53 2ZM54 2L54 3L55 3L55 2ZM62 2L62 3L63 3L63 2ZM41 3L41 4L42 4L42 3ZM44 4L44 5L45 5L45 4ZM25 5L25 8L28 8L28 5ZM34 5L34 6L33 6L33 7L32 7L32 6L31 6L31 7L32 7L32 8L33 8L33 11L34 11L34 9L36 9L36 8L37 8L37 7L36 7L36 6L35 6L35 5ZM47 5L47 8L50 8L50 5ZM9 6L9 7L10 7L10 8L11 8L11 7L10 7L10 6ZM17 6L17 7L18 7L18 6ZM26 6L26 7L27 7L27 6ZM34 6L34 8L36 8L36 7L35 7L35 6ZM39 6L39 7L38 7L38 9L37 9L37 10L39 10L39 11L36 11L36 10L35 10L35 11L36 11L36 12L37 12L37 14L38 14L38 16L37 16L37 15L36 15L36 16L37 16L37 17L38 17L38 18L37 18L37 19L36 19L36 20L37 20L37 21L38 21L38 22L37 22L37 23L36 23L36 22L35 22L35 23L34 23L34 24L33 24L33 25L34 25L34 26L33 26L33 27L32 27L32 28L33 28L33 29L34 29L34 30L33 30L33 31L32 31L32 30L31 30L31 31L30 31L30 32L28 32L28 33L27 33L27 36L28 36L28 37L29 37L29 36L28 36L28 35L30 35L30 36L31 36L31 37L30 37L30 38L31 38L31 39L32 39L32 40L31 40L31 41L32 41L32 40L33 40L33 41L34 41L34 42L33 42L33 43L32 43L32 42L30 42L30 43L29 43L29 44L30 44L30 43L32 43L32 44L31 44L31 45L32 45L32 44L33 44L33 45L34 45L34 46L33 46L33 47L32 47L32 48L31 48L31 49L32 49L32 48L33 48L33 47L34 47L34 48L35 48L35 49L34 49L34 50L35 50L35 51L36 51L36 52L35 52L35 53L36 53L36 52L38 52L38 53L37 53L37 55L36 55L36 54L35 54L35 55L34 55L34 58L35 58L35 57L36 57L36 56L37 56L37 57L38 57L38 58L37 58L37 59L38 59L38 60L37 60L37 61L38 61L38 62L37 62L37 63L38 63L38 64L37 64L37 65L38 65L38 66L37 66L37 67L38 67L38 66L39 66L39 65L40 65L40 64L41 64L41 63L42 63L42 62L43 62L43 63L44 63L44 62L43 62L43 61L44 61L44 60L45 60L45 63L46 63L46 62L47 62L47 63L48 63L48 64L49 64L49 65L50 65L50 64L51 64L51 63L52 63L52 64L53 64L53 63L54 63L54 64L55 64L55 65L54 65L54 66L55 66L55 67L58 67L58 68L59 68L59 67L60 67L60 68L61 68L61 67L62 67L62 68L63 68L63 67L64 67L64 68L65 68L65 67L66 67L66 66L65 66L65 65L64 65L64 64L65 64L65 63L64 63L64 62L67 62L67 61L66 61L66 60L65 60L65 59L66 59L66 58L67 58L67 57L68 57L68 58L69 58L69 59L70 59L70 58L71 58L71 57L72 57L72 56L71 56L71 57L70 57L70 56L69 56L69 55L70 55L70 54L71 54L71 53L72 53L72 52L73 52L73 53L74 53L74 52L73 52L73 51L72 51L72 52L71 52L71 53L70 53L70 52L69 52L69 51L68 51L68 50L67 50L67 49L68 49L68 48L67 48L67 47L68 47L68 46L69 46L69 45L70 45L70 46L71 46L71 45L72 45L72 44L73 44L73 45L74 45L74 44L73 44L73 43L72 43L72 44L71 44L71 42L73 42L73 41L74 41L74 40L73 40L73 39L71 39L71 37L70 37L70 40L69 40L69 39L68 39L68 38L67 38L67 37L66 37L66 38L65 38L65 37L64 37L64 36L65 36L65 35L64 35L64 36L62 36L62 37L60 37L60 36L61 36L61 35L62 35L62 34L61 34L61 35L60 35L60 33L58 33L58 34L57 34L57 31L58 31L58 30L57 30L57 27L58 27L58 28L59 28L59 27L60 27L60 28L61 28L61 27L62 27L62 28L63 28L63 27L62 27L62 26L61 26L61 25L60 25L60 24L61 24L61 23L62 23L62 24L63 24L63 23L62 23L62 22L61 22L61 21L60 21L60 20L61 20L61 19L62 19L62 20L63 20L63 19L64 19L64 20L65 20L65 19L66 19L66 18L67 18L67 17L66 17L66 18L65 18L65 17L64 17L64 16L65 16L65 15L66 15L66 16L67 16L67 15L66 15L66 14L67 14L67 13L68 13L68 14L69 14L69 15L68 15L68 16L69 16L69 17L70 17L70 16L71 16L71 17L72 17L72 18L71 18L71 19L70 19L70 18L69 18L69 19L70 19L70 20L71 20L71 19L72 19L72 18L73 18L73 17L74 17L74 16L73 16L73 15L72 15L72 14L71 14L71 15L70 15L70 14L69 14L69 13L70 13L70 12L69 12L69 11L68 11L68 12L67 12L67 11L66 11L66 10L67 10L67 9L66 9L66 10L65 10L65 9L62 9L62 10L61 10L61 11L60 11L60 12L59 12L59 11L58 11L58 12L59 12L59 13L58 13L58 14L57 14L57 13L56 13L56 12L57 12L57 11L56 11L56 12L55 12L55 11L54 11L54 13L55 13L55 14L53 14L53 13L52 13L52 12L53 12L53 11L52 11L52 12L51 12L51 11L50 11L50 12L51 12L51 13L50 13L50 14L49 14L49 13L48 13L48 14L47 14L47 13L46 13L46 14L45 14L45 15L44 15L44 14L43 14L43 13L44 13L44 12L43 12L43 11L42 11L42 10L41 10L41 11L40 11L40 10L39 10L39 9L40 9L40 8L41 8L41 7L42 7L42 6L41 6L41 7L40 7L40 6ZM48 6L48 7L49 7L49 6ZM61 6L61 7L60 7L60 8L61 8L61 7L62 7L62 6ZM39 7L39 8L40 8L40 7ZM54 7L54 8L55 8L55 7ZM56 7L56 8L57 8L57 7ZM0 8L0 9L1 9L1 8ZM2 8L2 9L3 9L3 8ZM14 9L14 10L13 10L13 11L15 11L15 10L17 10L17 9ZM25 9L25 10L27 10L27 9ZM31 10L31 11L30 11L30 12L29 12L29 13L30 13L30 14L31 14L31 13L32 13L32 10ZM62 10L62 11L61 11L61 12L60 12L60 13L61 13L61 14L60 14L60 15L59 15L59 14L58 14L58 15L57 15L57 14L56 14L56 15L55 15L55 16L54 16L54 15L53 15L53 14L52 14L52 15L51 15L51 14L50 14L50 15L49 15L49 14L48 14L48 15L49 15L49 16L48 16L48 17L49 17L49 18L46 18L46 17L47 17L47 16L46 16L46 15L47 15L47 14L46 14L46 15L45 15L45 16L44 16L44 15L43 15L43 14L42 14L42 13L41 13L41 12L42 12L42 11L41 11L41 12L40 12L40 11L39 11L39 12L40 12L40 13L38 13L38 14L40 14L40 15L39 15L39 16L40 16L40 17L39 17L39 18L38 18L38 19L37 19L37 20L38 20L38 19L39 19L39 20L40 20L40 21L39 21L39 22L38 22L38 23L37 23L37 24L38 24L38 23L39 23L39 24L40 24L40 25L39 25L39 26L38 26L38 25L36 25L36 28L35 28L35 30L34 30L34 31L33 31L33 32L32 32L32 31L31 31L31 32L32 32L32 33L31 33L31 34L30 34L30 33L28 33L28 34L30 34L30 35L31 35L31 36L32 36L32 37L31 37L31 38L32 38L32 39L33 39L33 40L34 40L34 39L35 39L35 40L36 40L36 41L35 41L35 42L34 42L34 43L33 43L33 44L34 44L34 43L35 43L35 44L36 44L36 45L35 45L35 46L34 46L34 47L35 47L35 48L36 48L36 49L35 49L35 50L36 50L36 51L37 51L37 50L38 50L38 47L39 47L39 48L40 48L40 49L39 49L39 50L40 50L40 51L39 51L39 52L40 52L40 53L39 53L39 54L40 54L40 55L39 55L39 56L40 56L40 57L39 57L39 58L38 58L38 59L39 59L39 60L40 60L40 61L39 61L39 62L38 62L38 63L39 63L39 64L40 64L40 63L41 63L41 62L42 62L42 61L41 61L41 60L42 60L42 59L43 59L43 60L44 60L44 59L45 59L45 60L46 60L46 61L47 61L47 60L48 60L48 61L49 61L49 62L48 62L48 63L49 63L49 64L50 64L50 63L51 63L51 62L50 62L50 61L52 61L52 62L54 62L54 63L55 63L55 62L54 62L54 61L55 61L55 60L56 60L56 61L57 61L57 62L58 62L58 63L57 63L57 66L58 66L58 67L59 67L59 66L58 66L58 65L59 65L59 64L60 64L60 65L61 65L61 66L60 66L60 67L61 67L61 66L62 66L62 67L63 67L63 66L62 66L62 65L63 65L63 64L64 64L64 63L63 63L63 62L62 62L62 61L63 61L63 60L64 60L64 61L65 61L65 60L64 60L64 59L65 59L65 58L66 58L66 57L67 57L67 56L66 56L66 55L67 55L67 54L68 54L68 55L69 55L69 54L70 54L70 53L69 53L69 52L68 52L68 53L67 53L67 52L66 52L66 51L67 51L67 50L66 50L66 49L67 49L67 48L66 48L66 47L67 47L67 46L68 46L68 45L67 45L67 44L68 44L68 43L69 43L69 44L70 44L70 45L71 45L71 44L70 44L70 43L69 43L69 42L70 42L70 41L69 41L69 42L68 42L68 41L67 41L67 40L68 40L68 39L67 39L67 38L66 38L66 39L64 39L64 40L63 40L63 41L64 41L64 42L66 42L66 43L65 43L65 44L64 44L64 43L63 43L63 44L62 44L62 42L60 42L60 43L61 43L61 44L59 44L59 45L58 45L58 43L59 43L59 41L62 41L62 38L60 38L60 40L58 40L58 39L59 39L59 38L56 38L56 37L57 37L57 36L58 36L58 37L59 37L59 36L60 36L60 35L59 35L59 34L58 34L58 35L57 35L57 34L56 34L56 35L57 35L57 36L54 36L54 35L55 35L55 34L54 34L54 33L55 33L55 32L54 32L54 31L56 31L56 30L54 30L54 29L56 29L56 27L55 27L55 26L54 26L54 25L55 25L55 24L57 24L57 26L58 26L58 27L59 27L59 26L58 26L58 25L59 25L59 24L60 24L60 23L61 23L61 22L60 22L60 23L59 23L59 22L58 22L58 21L59 21L59 20L60 20L60 19L61 19L61 18L62 18L62 19L63 19L63 18L62 18L62 17L63 17L63 16L64 16L64 15L65 15L65 14L66 14L66 13L67 13L67 12L66 12L66 11L65 11L65 10L64 10L64 11L65 11L65 12L62 12L62 11L63 11L63 10ZM6 11L6 12L7 12L7 11ZM16 11L16 12L17 12L17 11ZM19 11L19 12L20 12L20 11ZM68 12L68 13L69 13L69 12ZM14 13L14 14L15 14L15 13ZM18 13L18 14L19 14L19 13ZM62 13L62 14L61 14L61 15L60 15L60 16L59 16L59 15L58 15L58 16L59 16L59 17L58 17L58 18L57 18L57 17L56 17L56 16L57 16L57 15L56 15L56 16L55 16L55 17L54 17L54 16L53 16L53 15L52 15L52 16L51 16L51 15L50 15L50 16L49 16L49 17L50 17L50 18L49 18L49 19L50 19L50 18L51 18L51 19L52 19L52 20L51 20L51 22L50 22L50 24L51 24L51 27L52 27L52 28L53 28L53 27L54 27L54 28L55 28L55 27L54 27L54 26L53 26L53 24L51 24L51 23L54 23L54 24L55 24L55 23L58 23L58 24L59 24L59 23L58 23L58 22L57 22L57 21L56 21L56 20L57 20L57 19L58 19L58 20L59 20L59 19L60 19L60 18L61 18L61 17L60 17L60 16L61 16L61 15L62 15L62 16L63 16L63 15L64 15L64 14L65 14L65 13L64 13L64 14L63 14L63 13ZM41 14L41 15L40 15L40 16L41 16L41 17L42 17L42 18L41 18L41 19L40 19L40 18L39 18L39 19L40 19L40 20L41 20L41 21L42 21L42 22L41 22L41 23L40 23L40 22L39 22L39 23L40 23L40 24L41 24L41 25L42 25L42 26L41 26L41 27L40 27L40 26L39 26L39 27L38 27L38 26L37 26L37 27L38 27L38 28L36 28L36 30L37 30L37 31L36 31L36 32L35 32L35 31L34 31L34 32L33 32L33 33L34 33L34 34L33 34L33 35L32 35L32 34L31 34L31 35L32 35L32 36L33 36L33 37L34 37L34 38L33 38L33 39L34 39L34 38L35 38L35 39L36 39L36 40L37 40L37 41L38 41L38 42L37 42L37 43L36 43L36 42L35 42L35 43L36 43L36 44L37 44L37 45L38 45L38 46L37 46L37 47L36 47L36 46L35 46L35 47L36 47L36 48L37 48L37 47L38 47L38 46L39 46L39 47L40 47L40 48L41 48L41 49L42 49L42 50L41 50L41 51L40 51L40 52L41 52L41 53L42 53L42 54L41 54L41 55L40 55L40 56L41 56L41 57L42 57L42 58L41 58L41 59L40 59L40 58L39 58L39 59L40 59L40 60L41 60L41 59L42 59L42 58L43 58L43 59L44 59L44 58L43 58L43 57L44 57L44 56L45 56L45 59L46 59L46 60L47 60L47 59L48 59L48 60L49 60L49 61L50 61L50 60L52 60L52 59L54 59L54 60L55 60L55 59L56 59L56 60L57 60L57 59L58 59L58 60L59 60L59 61L58 61L58 62L59 62L59 63L58 63L58 64L59 64L59 63L60 63L60 64L61 64L61 63L62 63L62 64L63 64L63 63L62 63L62 62L61 62L61 61L60 61L60 60L61 60L61 59L62 59L62 60L63 60L63 59L64 59L64 58L65 58L65 57L64 57L64 56L65 56L65 55L66 55L66 54L67 54L67 53L66 53L66 54L65 54L65 53L64 53L64 54L63 54L63 53L62 53L62 54L61 54L61 53L60 53L60 52L61 52L61 51L62 51L62 52L65 52L65 51L66 51L66 50L65 50L65 47L66 47L66 46L67 46L67 45L66 45L66 46L65 46L65 47L64 47L64 45L62 45L62 46L61 46L61 45L60 45L60 46L59 46L59 47L58 47L58 48L59 48L59 51L60 51L60 52L59 52L59 53L58 53L58 54L57 54L57 53L56 53L56 52L57 52L57 51L58 51L58 50L57 50L57 49L56 49L56 48L57 48L57 47L56 47L56 46L57 46L57 45L56 45L56 44L57 44L57 43L58 43L58 42L57 42L57 41L56 41L56 40L57 40L57 39L56 39L56 38L55 38L55 37L54 37L54 38L53 38L53 37L52 37L52 36L53 36L53 35L54 35L54 34L53 34L53 33L52 33L52 32L53 32L53 31L54 31L54 30L53 30L53 31L52 31L52 30L49 30L49 29L48 29L48 30L49 30L49 31L47 31L47 32L46 32L46 33L48 33L48 34L47 34L47 35L48 35L48 36L49 36L49 37L48 37L48 38L47 38L47 37L46 37L46 36L44 36L44 34L43 34L43 33L44 33L44 32L45 32L45 31L44 31L44 30L43 30L43 29L44 29L44 28L45 28L45 27L44 27L44 26L43 26L43 25L44 25L44 24L45 24L45 26L46 26L46 24L49 24L49 21L48 21L48 19L46 19L46 18L45 18L45 19L44 19L44 18L43 18L43 17L44 17L44 16L43 16L43 15L42 15L42 14ZM62 14L62 15L63 15L63 14ZM16 15L16 16L17 16L17 15ZM41 15L41 16L42 16L42 15ZM69 15L69 16L70 16L70 15ZM71 15L71 16L72 16L72 15ZM52 16L52 17L53 17L53 16ZM4 17L4 18L5 18L5 17ZM11 18L11 19L13 19L13 20L12 20L12 21L13 21L13 20L14 20L14 19L13 19L13 18ZM21 18L21 19L23 19L23 18ZM42 18L42 19L41 19L41 20L42 20L42 19L43 19L43 20L44 20L44 21L43 21L43 22L42 22L42 23L41 23L41 24L42 24L42 23L43 23L43 24L44 24L44 23L45 23L45 24L46 24L46 23L45 23L45 22L46 22L46 21L45 21L45 20L46 20L46 19L45 19L45 20L44 20L44 19L43 19L43 18ZM52 18L52 19L53 19L53 20L52 20L52 21L53 21L53 22L54 22L54 23L55 23L55 22L54 22L54 21L55 21L55 20L56 20L56 19L57 19L57 18L56 18L56 19L55 19L55 18ZM58 18L58 19L59 19L59 18ZM64 18L64 19L65 19L65 18ZM16 19L16 20L17 20L17 19ZM24 19L24 21L27 21L27 19ZM54 19L54 20L55 20L55 19ZM3 21L3 22L4 22L4 21ZM9 21L9 22L10 22L10 21ZM43 22L43 23L44 23L44 22ZM13 23L13 24L14 24L14 25L15 25L15 24L14 24L14 23ZM2 25L2 27L3 27L3 25ZM5 25L5 28L8 28L8 25ZM25 25L25 28L28 28L28 25ZM47 25L47 28L50 28L50 25ZM69 25L69 28L72 28L72 25ZM6 26L6 27L7 27L7 26ZM26 26L26 27L27 27L27 26ZM34 26L34 27L33 27L33 28L34 28L34 27L35 27L35 26ZM42 26L42 27L41 27L41 28L42 28L42 27L43 27L43 28L44 28L44 27L43 27L43 26ZM48 26L48 27L49 27L49 26ZM52 26L52 27L53 27L53 26ZM60 26L60 27L61 27L61 26ZM70 26L70 27L71 27L71 26ZM13 27L13 28L14 28L14 27ZM37 29L37 30L38 30L38 31L37 31L37 32L36 32L36 33L35 33L35 34L34 34L34 35L33 35L33 36L34 36L34 35L35 35L35 36L36 36L36 37L35 37L35 38L36 38L36 39L37 39L37 40L38 40L38 39L39 39L39 40L40 40L40 41L39 41L39 42L38 42L38 43L37 43L37 44L38 44L38 43L39 43L39 44L40 44L40 45L39 45L39 46L40 46L40 47L41 47L41 48L42 48L42 46L43 46L43 48L44 48L44 49L43 49L43 50L42 50L42 51L41 51L41 52L42 52L42 51L43 51L43 52L44 52L44 53L43 53L43 54L42 54L42 55L41 55L41 56L42 56L42 55L43 55L43 56L44 56L44 55L45 55L45 56L46 56L46 57L47 57L47 56L48 56L48 57L49 57L49 58L48 58L48 59L49 59L49 60L50 60L50 59L51 59L51 58L50 58L50 57L51 57L51 56L52 56L52 57L53 57L53 58L54 58L54 59L55 59L55 58L54 58L54 57L55 57L55 56L56 56L56 57L57 57L57 58L56 58L56 59L57 59L57 58L58 58L58 59L59 59L59 60L60 60L60 59L61 59L61 58L62 58L62 59L63 59L63 58L62 58L62 57L63 57L63 56L64 56L64 55L65 55L65 54L64 54L64 55L63 55L63 54L62 54L62 55L61 55L61 54L60 54L60 55L59 55L59 54L58 54L58 55L57 55L57 54L56 54L56 55L55 55L55 56L54 56L54 54L55 54L55 53L54 53L54 52L56 52L56 51L57 51L57 50L56 50L56 51L55 51L55 49L53 49L53 48L54 48L54 47L55 47L55 48L56 48L56 47L55 47L55 46L52 46L52 47L51 47L51 46L48 46L48 45L49 45L49 44L50 44L50 45L51 45L51 44L52 44L52 45L53 45L53 44L54 44L54 45L55 45L55 44L56 44L56 43L57 43L57 42L56 42L56 43L55 43L55 42L54 42L54 41L55 41L55 40L56 40L56 39L55 39L55 38L54 38L54 39L53 39L53 38L52 38L52 39L51 39L51 38L50 38L50 39L49 39L49 38L48 38L48 39L47 39L47 38L46 38L46 37L43 37L43 36L42 36L42 37L41 37L41 38L40 38L40 37L39 37L39 38L38 38L38 37L37 37L37 36L38 36L38 35L39 35L39 36L41 36L41 34L42 34L42 35L43 35L43 34L42 34L42 33L41 33L41 32L42 32L42 31L43 31L43 32L44 32L44 31L43 31L43 30L42 30L42 29L40 29L40 30L42 30L42 31L39 31L39 30L38 30L38 29ZM46 29L46 30L47 30L47 29ZM6 30L6 31L7 31L7 30ZM9 30L9 31L10 31L10 30ZM38 31L38 32L37 32L37 33L36 33L36 34L35 34L35 35L36 35L36 36L37 36L37 35L38 35L38 34L39 34L39 35L40 35L40 32L39 32L39 31ZM50 31L50 33L51 33L51 32L52 32L52 31ZM62 31L62 32L63 32L63 31ZM48 32L48 33L49 33L49 32ZM37 33L37 34L36 34L36 35L37 35L37 34L38 34L38 33ZM6 34L6 35L7 35L7 36L8 36L8 37L7 37L7 38L6 38L6 39L7 39L7 40L8 40L8 39L7 39L7 38L8 38L8 37L9 37L9 35L10 35L10 34L9 34L9 35L7 35L7 34ZM12 34L12 36L13 36L13 34ZM45 34L45 35L46 35L46 34ZM48 34L48 35L49 35L49 36L50 36L50 37L51 37L51 36L52 36L52 35L53 35L53 34L52 34L52 35L51 35L51 34L50 34L50 35L49 35L49 34ZM50 35L50 36L51 36L51 35ZM58 35L58 36L59 36L59 35ZM66 35L66 36L67 36L67 35ZM10 36L10 38L9 38L9 39L10 39L10 38L13 38L13 37L11 37L11 36ZM17 37L17 39L18 39L18 37ZM23 37L23 38L24 38L24 37ZM42 37L42 42L41 42L41 43L40 43L40 42L39 42L39 43L40 43L40 44L41 44L41 45L42 45L42 44L43 44L43 43L44 43L44 41L43 41L43 37ZM37 38L37 39L38 39L38 38ZM45 38L45 39L46 39L46 38ZM11 39L11 40L10 40L10 42L11 42L11 43L13 43L13 40L12 40L12 39ZM29 39L29 40L28 40L28 41L29 41L29 40L30 40L30 39ZM40 39L40 40L41 40L41 39ZM48 39L48 40L49 40L49 41L48 41L48 42L47 42L47 41L46 41L46 40L45 40L45 41L46 41L46 42L45 42L45 43L46 43L46 42L47 42L47 43L48 43L48 44L49 44L49 43L50 43L50 44L51 44L51 43L52 43L52 44L53 44L53 43L54 43L54 44L55 44L55 43L54 43L54 42L53 42L53 41L52 41L52 40L53 40L53 39L52 39L52 40L51 40L51 39L50 39L50 40L49 40L49 39ZM54 39L54 40L55 40L55 39ZM66 39L66 40L67 40L67 39ZM11 40L11 42L12 42L12 40ZM50 40L50 41L51 41L51 40ZM71 40L71 41L73 41L73 40ZM66 41L66 42L67 42L67 43L66 43L66 44L67 44L67 43L68 43L68 42L67 42L67 41ZM6 42L6 43L8 43L8 42ZM48 42L48 43L49 43L49 42ZM50 42L50 43L51 43L51 42ZM52 42L52 43L53 43L53 42ZM44 44L44 46L45 46L45 47L44 47L44 48L45 48L45 47L46 47L46 46L47 46L47 45L46 45L46 44ZM1 45L1 46L2 46L2 45ZM6 45L6 46L7 46L7 45ZM10 45L10 46L11 46L11 45ZM45 45L45 46L46 46L46 45ZM60 46L60 47L59 47L59 48L60 48L60 49L61 49L61 50L60 50L60 51L61 51L61 50L62 50L62 51L63 51L63 50L62 50L62 49L64 49L64 47L63 47L63 46L62 46L62 47L61 47L61 46ZM5 47L5 50L8 50L8 47ZM14 47L14 48L15 48L15 47ZM25 47L25 50L28 50L28 47ZM47 47L47 50L50 50L50 47ZM52 47L52 48L51 48L51 51L50 51L50 52L49 52L49 51L48 51L48 52L47 52L47 51L46 51L46 50L45 50L45 51L44 51L44 50L43 50L43 51L44 51L44 52L45 52L45 55L46 55L46 56L47 56L47 55L48 55L48 56L49 56L49 57L50 57L50 56L51 56L51 55L52 55L52 56L53 56L53 55L52 55L52 54L53 54L53 53L52 53L52 52L53 52L53 51L52 51L52 50L53 50L53 49L52 49L52 48L53 48L53 47ZM60 47L60 48L61 48L61 47ZM62 47L62 48L63 48L63 47ZM69 47L69 50L72 50L72 47ZM6 48L6 49L7 49L7 48ZM18 48L18 49L19 49L19 48ZM20 48L20 50L21 50L21 48ZM26 48L26 49L27 49L27 48ZM48 48L48 49L49 49L49 48ZM70 48L70 49L71 49L71 48ZM73 48L73 49L74 49L74 48ZM1 49L1 50L2 50L2 49ZM64 50L64 51L65 51L65 50ZM15 51L15 52L16 52L16 51ZM45 51L45 52L46 52L46 53L47 53L47 52L46 52L46 51ZM51 51L51 52L50 52L50 53L49 53L49 52L48 52L48 53L49 53L49 54L48 54L48 55L49 55L49 56L50 56L50 55L51 55L51 54L50 54L50 53L51 53L51 52L52 52L52 51ZM6 52L6 53L7 53L7 52ZM1 53L1 54L2 54L2 53ZM27 53L27 54L29 54L29 53ZM68 53L68 54L69 54L69 53ZM15 54L15 55L14 55L14 57L17 57L17 54ZM23 54L23 55L24 55L24 54ZM43 54L43 55L44 55L44 54ZM46 54L46 55L47 55L47 54ZM15 55L15 56L16 56L16 55ZM19 55L19 56L20 56L20 55ZM35 55L35 56L36 56L36 55ZM37 55L37 56L38 56L38 55ZM56 55L56 56L57 56L57 55ZM58 55L58 56L59 56L59 57L58 57L58 58L59 58L59 59L60 59L60 58L61 58L61 57L60 57L60 56L61 56L61 55L60 55L60 56L59 56L59 55ZM62 55L62 56L63 56L63 55ZM30 56L30 58L28 58L28 59L32 59L32 58L33 58L33 56ZM68 56L68 57L69 57L69 58L70 58L70 57L69 57L69 56ZM73 56L73 57L74 57L74 56ZM6 57L6 58L7 58L7 57ZM31 57L31 58L32 58L32 57ZM15 58L15 59L16 59L16 60L15 60L15 61L17 61L17 58ZM46 58L46 59L47 59L47 58ZM19 59L19 60L20 60L20 59ZM73 59L73 60L74 60L74 59ZM21 61L21 62L23 62L23 61ZM4 62L4 64L5 64L5 66L7 66L7 65L6 65L6 64L5 64L5 62ZM39 62L39 63L40 63L40 62ZM60 62L60 63L61 63L61 62ZM10 63L10 64L11 64L11 63ZM19 63L19 64L20 64L20 63ZM26 63L26 65L27 65L27 63ZM15 64L15 65L16 65L16 66L17 66L17 64ZM68 64L68 65L69 65L69 66L70 66L70 65L69 65L69 64ZM13 66L13 67L14 67L14 70L15 70L15 71L17 71L17 72L18 72L18 71L17 71L17 70L15 70L15 69L16 69L16 68L15 68L15 67L14 67L14 66ZM41 66L41 67L42 67L42 66ZM64 66L64 67L65 67L65 66ZM19 67L19 68L20 68L20 67ZM34 67L34 68L33 68L33 69L34 69L34 70L33 70L33 71L34 71L34 70L35 70L35 69L36 69L36 70L37 70L37 69L36 69L36 68L35 68L35 67ZM25 69L25 72L28 72L28 69ZM47 69L47 72L50 72L50 69ZM69 69L69 72L72 72L72 69ZM26 70L26 71L27 71L27 70ZM42 70L42 71L43 71L43 72L44 72L44 71L43 71L43 70ZM48 70L48 71L49 71L49 70ZM54 70L54 71L55 71L55 70ZM70 70L70 71L71 71L71 70ZM73 70L73 71L74 71L74 70ZM64 71L64 72L65 72L65 71ZM8 72L8 73L9 73L9 72ZM73 72L73 73L72 73L72 74L71 74L71 73L70 73L70 74L71 74L71 75L72 75L72 74L73 74L73 75L74 75L74 74L75 74L75 76L76 76L76 74L75 74L75 72ZM26 73L26 74L27 74L27 76L28 76L28 74L27 74L27 73ZM68 73L68 74L69 74L69 73ZM73 73L73 74L74 74L74 73ZM47 74L47 76L48 76L48 77L49 77L49 76L48 76L48 74ZM54 74L54 75L55 75L55 74ZM58 74L58 75L59 75L59 74ZM66 74L66 76L67 76L67 74ZM8 76L8 77L9 77L9 76ZM15 76L15 77L18 77L18 76ZM42 76L42 77L43 77L43 76ZM0 0L0 7L7 7L7 0ZM1 1L1 6L6 6L6 1ZM2 2L2 5L5 5L5 2ZM70 0L70 7L77 7L77 0ZM71 1L71 6L76 6L76 1ZM72 2L72 5L75 5L75 2ZM0 70L0 77L7 77L7 70ZM1 71L1 76L6 76L6 71ZM2 72L2 75L5 75L5 72Z" fill="#000000"/></g></g></svg>
