<svg width="33" height="25" viewBox="0 0 33 25" fill="none" xmlns="http://www.w3.org/2000/svg">
<path d="M23.8905 14.9016C24.7541 14.9016 25.4566 14.1991 25.4566 13.3356C25.4566 13.0719 25.2429 12.8583 24.9793 12.8583C24.7157 12.8583 24.502 13.0719 24.502 13.3356C24.502 13.6728 24.2277 13.9471 23.8905 13.9471C23.5534 13.9471 23.279 13.6727 23.279 13.3356C23.279 13.0719 23.0653 12.8583 22.8017 12.8583C22.5382 12.8583 22.3245 13.0719 22.3245 13.3356C22.3244 14.1991 23.027 14.9016 23.8905 14.9016Z" fill="#68969B"/>
<path d="M26.3928 12.2243C26.6564 12.2243 26.8701 12.0107 26.8701 11.747V11.2483C27.1057 11.2191 27.2882 11.0182 27.2882 10.7746C27.2882 10.511 27.0745 10.2974 26.8109 10.2974H26.3928C26.1292 10.2974 25.9155 10.511 25.9155 10.7746V11.747C25.9155 12.0107 26.1292 12.2243 26.3928 12.2243Z" fill="#68969B"/>
<path d="M20.9108 11.2484V11.7472C20.9108 12.0108 21.1245 12.2244 21.3881 12.2244C21.6517 12.2244 21.8653 12.0108 21.8653 11.7472V10.7748C21.8653 10.5111 21.6517 10.2975 21.3881 10.2975H20.97C20.7064 10.2975 20.4927 10.5111 20.4927 10.7748C20.4927 11.0182 20.6751 11.2192 20.9108 11.2484Z" fill="#68969B"/>
<path d="M31.0239 11.8329C31.1593 11.5462 31.2355 11.2262 31.2355 10.8887C31.2355 10.3269 31.0252 9.81362 30.6797 9.42237C30.7346 9.34467 30.767 9.25011 30.767 9.14771C30.767 7.738 30.8374 6.90199 30.4133 5.68943C30.3263 5.44061 30.054 5.3092 29.8052 5.39644C29.5564 5.48344 29.4252 5.75574 29.5122 6.00457C29.8588 6.99548 29.8124 7.68283 29.8124 8.67043C29.2036 8.67043 27.5636 8.67043 26.8722 8.67043C25.4912 8.67043 24.3677 7.54696 24.3676 6.16602C24.3676 5.90237 24.1539 5.68873 23.8904 5.68873C23.6268 5.68873 23.4131 5.90237 23.4131 6.16602C23.4131 7.54696 22.2895 8.67043 20.9085 8.67043H18.8347H17.9683V7.78128C17.9683 4.81511 20.3815 2.40196 23.3476 2.40196C23.3837 2.40196 23.4131 2.4313 23.4131 2.46738C23.4131 2.73097 23.6268 2.9446 23.8904 2.9446C24.1539 2.9446 24.3676 2.73097 24.3676 2.46738C24.3676 2.4313 24.397 2.40196 24.4331 2.40196C25.9881 2.40202 27.4664 3.0748 28.4892 4.24778C28.6624 4.44652 28.964 4.46701 29.1626 4.29392C29.3613 4.12063 29.3819 3.81918 29.2087 3.6205C28.0046 2.23955 26.264 1.44752 24.4331 1.44745C24.2338 1.44745 24.0477 1.50492 23.8904 1.60413C23.7332 1.50492 23.547 1.44745 23.3477 1.44745C19.8552 1.44745 17.0138 4.28883 17.0138 7.78134V9.14778C17.0138 9.25011 17.0463 9.34474 17.1011 9.42244C16.9409 9.60387 16.8097 9.81139 16.7152 10.0381C16.6579 9.33424 16.3028 8.71612 15.7726 8.31176V6.49344C15.7726 2.91342 12.8601 0.00089797 9.28009 0.00089797C8.39119 0.00089797 8.74737 -0.014439 7.51789 0.0816544C5.82194 0.214021 4.30423 1.12156 3.38549 2.53344L1.94816 2.07403C1.65034 1.97858 1.34112 2.19202 1.3261 2.50588C1.31929 2.6497 1.17528 5.84598 1.75808 8.07223C0.964067 8.47048 0.41748 9.29198 0.41748 10.2392C0.41748 11.4683 1.33743 12.4867 2.52498 12.6418C2.82389 13.9243 3.53001 15.0884 4.54014 15.9518C4.805 16.1781 5.08762 16.3796 5.38353 16.5566H4.3792C2.729 16.5566 1.3865 17.8992 1.3865 19.5493V23.7318C1.3865 23.9955 1.60019 24.2091 1.86378 24.2091H2.65665C2.92024 24.2091 3.13393 23.9955 3.13393 23.7318C3.13393 23.4682 2.92024 23.2545 2.65665 23.2545H2.34107V19.5493C2.34107 18.4255 3.25535 17.5112 4.3792 17.5112H5.76765C6.00483 18.9185 7.27759 19.9766 8.76449 19.8806C10.1105 19.7939 11.1769 18.7812 11.3912 17.5112H12.7799C13.9037 17.5112 14.8181 18.4255 14.8181 19.5493V23.2545H4.88404C4.62045 23.2545 4.40675 23.4682 4.40675 23.7318C4.40675 23.9955 4.62045 24.2091 4.88404 24.2091H15.2954C15.559 24.2091 15.7727 23.9955 15.7727 23.7318V19.5493C15.7727 19.1519 15.6942 18.7726 15.5529 18.4254H16.3197C16.7999 18.4254 17.2578 18.3295 17.6764 18.1568C17.3819 18.6121 17.2102 19.1539 17.2102 19.7353V23.7318C17.2102 23.9955 17.4239 24.2091 17.6875 24.2091H30.1255C30.3891 24.2091 30.6028 23.9955 30.6028 23.7318V19.7353C30.6028 19.1611 30.4353 18.6255 30.1476 18.1737C30.5545 18.3354 30.9974 18.4254 31.4614 18.4254H32.5228C32.7864 18.4254 33.0001 18.2117 33.0001 17.9481V15.0249C33.0001 13.6652 32.2121 12.429 31.0239 11.8329ZM20.9087 9.62506C22.1772 9.62506 23.2885 8.93879 23.8905 7.91785C24.4926 8.93879 25.6037 9.62506 26.8723 9.62506H29.0173C29.7141 9.62506 30.2809 10.1919 30.2809 10.8887C30.2809 11.2294 30.1448 11.5384 29.9249 11.7658C29.6736 12.0255 29.3251 12.1654 28.9667 12.1509C28.7253 12.1397 28.5155 12.3113 28.4758 12.549C28.1127 14.7199 26.2347 16.4255 23.8905 16.4255C22.2342 16.4255 20.6871 15.5499 19.8547 14.0938C19.8469 14.0741 19.838 14.0548 19.8276 14.0363C19.6333 13.6876 19.4859 13.3194 19.3875 12.9373C19.3855 12.9297 19.384 12.9219 19.382 12.9143C19.3549 12.8066 19.3292 12.6923 19.3052 12.5489C19.2655 12.3119 19.0548 12.1398 18.8143 12.1508C18.1 12.1798 17.5 11.6036 17.5 10.8885C17.5 10.1918 18.0669 9.62493 18.7636 9.62493C18.781 9.62493 18.7983 9.6257 18.8155 9.62633C18.8359 9.62716 18.856 9.62665 18.8758 9.62493H20.9087V9.62506ZM23.8983 19.3878C22.9902 19.3878 22.2514 18.649 22.2514 17.7408V17.2965V17.1361C22.793 17.3023 23.3587 17.3802 23.8904 17.3802C24.4395 17.3802 25.0114 17.2969 25.5452 17.1313V17.7409C25.5452 18.6207 24.8518 19.3416 23.9829 19.3857C23.9549 19.3871 23.9267 19.3878 23.8983 19.3878ZM20.1257 16.8192C20.1255 16.8192 20.1253 16.8192 20.1251 16.8192C19.7979 16.8193 19.4835 16.8744 19.1897 16.9744C19.4847 16.5756 19.6983 16.1135 19.8068 15.6124C19.9468 15.7615 20.0948 15.904 20.2515 16.0379C20.574 16.3136 20.9251 16.5494 21.2968 16.7434V16.8192H20.1257ZM26.4998 16.7356C27.0401 16.4514 27.5345 16.0808 27.9741 15.6125C28.0813 16.1075 28.2914 16.5645 28.581 16.96C28.036 16.784 27.7517 16.8192 26.4999 16.8192L26.4998 16.7356ZM2.264 3.17707L3.4546 3.55756C3.67155 3.62674 3.90739 3.53325 4.01761 3.33381C4.74887 2.0109 6.08521 1.15084 7.59222 1.0333C8.79211 0.939622 8.42829 0.955404 9.28009 0.955404C12.3337 0.955404 14.8181 3.4397 14.8181 6.49337V7.87209C14.401 7.7823 14.5329 7.81806 7.98709 7.81806C7.51121 7.81806 7.05537 7.71229 6.64465 7.52132C5.74105 7.10118 5.0558 6.2686 4.85508 5.24263C4.7784 4.85062 4.2959 4.7327 4.03816 5.00819C3.34966 5.74423 2.86831 6.61613 2.60695 7.521C2.27876 6.03645 2.25223 4.14201 2.264 3.17707ZM3.39046 12.1043C3.35183 11.8735 3.15207 11.7057 2.91992 11.7057C2.91349 11.7057 2.907 11.7058 2.90051 11.7061C2.88059 11.7069 2.86067 11.7077 2.84056 11.7077C2.03083 11.7077 1.37205 11.049 1.37205 10.2392C1.37205 9.44312 2.00665 8.79961 2.78723 8.77206C2.78914 8.77199 2.79111 8.77199 2.79302 8.77193C2.82853 8.77085 2.86404 8.77085 2.89936 8.77231C2.90013 8.77231 2.90089 8.77231 2.90165 8.77238C2.90312 8.77244 2.90458 8.77225 2.90604 8.77231C3.14411 8.77969 3.35106 8.60959 3.39046 8.37419C3.4982 7.72999 3.72443 7.11715 4.05624 6.56159C4.10365 6.48224 4.15322 6.40403 4.2049 6.32709C4.86189 7.78624 6.33085 8.77269 7.98709 8.77269H14.3697H14.37C14.6017 8.78339 14.843 8.85332 15.051 8.97723C15.0547 8.97945 15.0587 8.98092 15.0624 8.98302C15.4877 9.24018 15.7694 9.70601 15.7694 10.2392C15.7694 11.0489 15.1107 11.7076 14.3009 11.7076C14.2808 11.7076 14.2608 11.7068 14.2409 11.706C14.0008 11.6974 13.7907 11.867 13.751 12.1042C13.3184 14.6907 11.0928 16.4838 8.57072 16.4838C6.02927 16.4839 3.81995 14.6723 3.39046 12.1043ZM8.48379 18.9303C7.54984 18.8836 6.78834 18.1571 6.69276 17.2306C6.69206 17.2237 6.69168 17.2166 6.69104 17.2096C6.68913 17.189 6.68754 17.1683 6.68633 17.1475C7.31488 17.348 7.97029 17.4384 8.57084 17.4384C9.18272 17.4384 9.84341 17.3449 10.4735 17.1415C10.4158 18.181 9.52465 18.9823 8.48379 18.9303ZM12.7799 16.5566H11.7581C12.054 16.3796 12.3366 16.1781 12.6015 15.9518C13.6115 15.0884 14.3177 13.9243 14.6166 12.6418C15.5038 12.5259 16.2414 11.9282 16.5579 11.1207C16.5842 11.373 16.653 11.6128 16.757 11.8329C15.5687 12.429 14.7807 13.6652 14.7807 15.0249V17.326C14.2502 16.8481 13.5485 16.5566 12.7799 16.5566ZM15.7353 17.4708V15.0249C15.7353 13.9629 16.3914 13.0032 17.3596 12.6057C17.6766 12.8646 18.0584 13.0273 18.4401 13.0833C18.5503 13.5438 18.7238 13.9935 18.9334 14.3899V14.8569C18.9334 16.2981 17.7609 17.4707 16.3196 17.4707H15.7353V17.4708ZM29.6482 23.2545H18.1647V19.7353C18.1647 18.6537 19.0447 17.7738 20.1263 17.7738H21.297C21.3146 19.1832 22.4668 20.3424 23.8983 20.3424C25.3134 20.3424 26.4818 19.201 26.4996 17.7738H27.6866C28.7682 17.7738 29.6481 18.6537 29.6481 19.7353V23.2545H29.6482ZM32.0456 17.4708H31.4612C30.02 17.4708 28.8474 16.2982 28.8474 14.8569V14.39C29.0601 13.9876 29.2319 13.538 29.3408 13.0834C29.6994 13.0308 30.0609 12.885 30.3754 12.6407C30.3907 12.629 30.4064 12.618 30.4213 12.6059C31.3895 13.0032 32.0456 13.9629 32.0456 15.0249V17.4708Z" fill="#68969B"/>
<path d="M8.57076 14.6765C9.50497 14.6765 10.265 13.9165 10.265 12.9823C10.265 12.7186 10.0513 12.505 9.78771 12.505C9.52412 12.505 9.31043 12.7186 9.31043 12.9823C9.31043 13.3901 8.97862 13.722 8.57076 13.722C8.16291 13.722 7.83103 13.3901 7.83103 12.9823C7.83103 12.7186 7.61734 12.505 7.35375 12.505C7.09016 12.505 6.87646 12.7186 6.87646 12.9823C6.87653 13.9164 7.63656 14.6765 8.57076 14.6765Z" fill="#68969B"/>
<path d="M5.77367 9.65857C5.51008 9.65857 5.29639 9.8722 5.29639 10.1359V11.1911C5.29639 11.4548 5.51008 11.6684 5.77367 11.6684C6.03726 11.6684 6.25096 11.4548 6.25096 11.1911V10.1359C6.25096 9.87227 6.03726 9.65857 5.77367 9.65857Z" fill="#68969B"/>
<path d="M11.3679 11.6684C11.6315 11.6684 11.8452 11.4548 11.8452 11.1911V10.1359C11.8452 9.8722 11.6315 9.65857 11.3679 9.65857C11.1043 9.65857 10.8906 9.8722 10.8906 10.1359V11.1911C10.8906 11.4548 11.1043 11.6684 11.3679 11.6684Z" fill="#68969B"/>
</svg>
