<svg width="80" height="80" viewBox="0 0 80 80" fill="none" xmlns="http://www.w3.org/2000/svg">
<path d="M69.6805 9.05324C69.6805 12.4587 68.8807 14.9483 67.5263 16.7284C67.5005 16.7671 67.4876 16.7929 67.4618 16.8187C64.6497 20.4563 59.5674 21.1271 54.5366 20.6369C50.2153 20.2241 45.9327 18.96 43.1464 17.9925C43.6108 16.9348 43.8817 15.619 43.8817 14.213C43.8817 11.4396 42.8368 9.07904 41.3534 8.16318C47.1452 4.55134 69.6676 -8.73505 69.6805 9.05324Z" fill="#D6AF66"/>
<path d="M43.7514 15.8035C43.6301 16.602 43.4302 17.3489 43.1464 17.9925C45.9327 18.96 50.2153 20.2241 54.5366 20.6369C59.5674 21.1271 64.6497 20.4563 67.4618 16.8187C67.4876 16.7929 67.5005 16.7671 67.5263 16.7284C68.8807 14.9483 69.6805 12.4587 69.6805 9.05324C69.6792 7.88069 69.576 6.85131 69.3903 5.93803C65.1064 14.6348 53.2828 16.2846 43.7514 15.8035Z" fill="#B5862C"/>
<path d="M10.3432 9.05323C10.3819 -8.69635 32.9042 4.57714 38.6703 8.16318C37.1868 9.07903 36.142 11.4396 36.142 14.213C36.142 15.619 36.4129 16.9348 36.8773 17.9925C34.091 18.96 29.8084 20.2241 25.4871 20.6369C20.4434 21.1271 15.3481 20.4563 12.5361 16.7929C11.1687 14.9999 10.3303 12.4974 10.3432 9.05323Z" fill="#D6AF66"/>
<path d="M11.7918 2.966C10.8824 4.37462 10.3496 6.34952 10.3432 9.05324C10.3303 12.4974 11.1687 14.9999 12.5361 16.7929C15.3481 20.4563 20.4434 21.1271 25.4871 20.6369C29.8084 20.2241 34.091 18.96 36.8773 17.9925C36.5806 17.3179 36.3755 16.531 36.2568 15.69C26.3849 15.3223 16.7529 11.637 11.7918 2.966Z" fill="#B5862C"/>
<path d="M40.0119 20.6627C42.1491 20.6627 43.8817 17.7751 43.8817 14.213C43.8817 10.6509 42.1491 7.76329 40.0119 7.76329C37.8746 7.76329 36.142 10.6509 36.142 14.213C36.142 17.7751 37.8746 20.6627 40.0119 20.6627Z" fill="#BC9853"/>
<path d="M43.8817 14.213C43.8817 17.7732 42.1532 20.6627 40.0119 20.6627C37.8705 20.6627 36.142 17.7732 36.142 14.213C36.142 13.5422 36.2065 12.8973 36.3226 12.291C36.8128 14.8967 38.2833 16.7929 40.0119 16.7929C41.7404 16.7929 43.2109 14.8967 43.7011 12.291C43.8172 12.8973 43.8817 13.5422 43.8817 14.213Z" fill="#D6AF66"/>
<path d="M47.7515 36.142H52.3953L52.4856 36.1291C52.9499 38.7219 53.1305 41.7145 52.9113 45.1716L56.7811 41.3018L61.9408 46.4615C61.9408 46.4615 62.1343 41.8693 61.1024 36.142H61.1153H76.1302V77.4201C76.1302 78.839 74.9692 80 73.5503 80H46.4615V36.142H47.7515Z" fill="#A3D7DC"/>
<path d="M33.5621 36.142V80H6.47338C5.05444 80 3.89349 78.839 3.89349 77.4201V36.142H18.9084H18.9213C17.8894 41.8693 18.0828 46.4615 18.0828 46.4615L23.2426 41.3018L27.1124 45.1716C26.8931 41.7145 27.0737 38.7219 27.5381 36.1291L27.6284 36.142H32.2722H33.5621Z" fill="#A3D7DC"/>
<path d="M33.5622 36.142H46.4616V80H33.5622V36.142Z" fill="#D6AF66"/>
<path d="M18.9213 36.142C18.6762 37.5093 18.4956 38.8251 18.3795 40.0118H3.89349V36.142H18.9213Z" fill="#8CB8BD"/>
<path d="M33.5622 36.142V40.0118H27.0995C27.164 38.6187 27.3188 37.3287 27.5381 36.1291L27.6284 36.142H33.5622Z" fill="#8CB8BD"/>
<path d="M33.5622 36.142H46.4616V40.0118H33.5622V36.142Z" fill="#A17218"/>
<path d="M52.9242 40.0118H46.4615V36.142H52.3953L52.4856 36.1291C52.7049 37.3287 52.8597 38.6187 52.9242 40.0118Z" fill="#8CB8BD"/>
<path d="M80 18.1086V34.8521C80 35.5615 79.4195 36.142 78.7101 36.142H76.1302H61.1153H61.1024C60.2123 31.0467 58.3419 25.0743 54.5366 20.6369C59.5673 21.1271 64.6497 20.4563 67.4618 16.8187H78.7101C79.4195 16.8187 80 17.3992 80 18.1086Z" fill="#A3D7DC"/>
<path d="M52.4856 36.1291L52.3953 36.142H47.7515V25.1904C49.7251 27.6026 51.6213 31.1112 52.4856 36.1291Z" fill="#A3D7DC"/>
<path d="M80 18.1086V34.8521C80 35.5615 79.4195 36.142 78.7101 36.142H61.1024C60.9476 35.3035 60.7799 34.4393 60.5735 33.5621H73.4806C75.6568 33.5621 77.4201 31.7988 77.4201 29.6226V16.8187H78.7101C79.4195 16.8187 80 17.3992 80 18.1086Z" fill="#8CB8BD"/>
<path d="M52.4856 36.1291L52.3953 36.142H47.7515V33.5621H51.9309C52.1502 34.3748 52.3308 35.2262 52.4856 36.1291Z" fill="#8CB8BD"/>
<path d="M32.2722 25.1904V36.142H27.6284L27.5381 36.1291C28.4023 31.1112 30.2986 27.6026 32.2722 25.1904Z" fill="#A3D7DC"/>
<path d="M12.5361 16.7929C15.3482 20.4563 20.4434 21.1271 25.4871 20.6369C21.6818 25.0743 19.8114 31.0467 18.9213 36.142H18.9084H3.8935H1.31362C0.604155 36.142 0.0236816 35.5615 0.0236816 34.8521V18.0828C0.0236816 17.3734 0.604155 16.7929 1.31362 16.7929H12.5361Z" fill="#A3D7DC"/>
<path d="M33.5621 74.8402V80H6.47338C5.05444 80 3.89349 78.839 3.89349 77.4201V74.8402H33.5621Z" fill="#8CB8BD"/>
<path d="M33.5622 74.8402H46.4616V80H33.5622V74.8402Z" fill="#BC9853"/>
<path d="M38.7219 20.3015C39.1218 20.5337 39.5604 20.6627 40.0119 20.6627C40.4633 20.6627 40.889 20.5337 41.2889 20.3015C41.2889 20.3015 44.6299 21.398 47.7515 25.1904V36.142H46.4616H33.5622H32.2722V25.1904C35.381 21.398 38.7219 20.3015 38.7219 20.3015Z" fill="#B5862C"/>
<path d="M32.2722 33.5621V36.142H27.6284L27.5381 36.1291C27.6929 35.2262 27.8735 34.3748 28.0928 33.5621H32.2722Z" fill="#8CB8BD"/>
<path d="M19.4502 33.5621C19.2438 34.4393 19.0761 35.3036 18.9213 36.142H1.31362C0.604155 36.142 0.0236816 35.5615 0.0236816 34.8521V33.5621H19.4502Z" fill="#8CB8BD"/>
<path d="M32.2722 33.5621H47.7515V36.142H32.2722V33.5621Z" fill="#BC9853"/>
<path d="M47.7515 25.1904V29.0602C44.6299 25.2678 41.2889 24.1714 41.2889 24.1714C40.889 24.4035 40.4633 24.5325 40.0119 24.5325C39.5604 24.5325 39.1218 24.4035 38.7219 24.1714C38.7219 24.1714 35.381 25.2678 32.2722 29.0602V25.1904C35.381 21.398 38.7219 20.3015 38.7219 20.3015C39.1218 20.5337 39.5604 20.6627 40.0119 20.6627C40.4633 20.6627 40.889 20.5337 41.2889 20.3015C41.2889 20.3015 44.6299 21.398 47.7515 25.1904Z" fill="#A17218"/>
<path d="M61.1024 36.142C62.1344 41.8693 61.9409 46.4615 61.9409 46.4615L56.7811 41.3018L52.9113 45.1716C53.1306 41.7145 52.95 38.7219 52.4856 36.1291C51.6214 31.1112 49.7252 27.6026 47.7515 25.1904C44.6299 21.398 41.2889 20.3015 41.2889 20.3015C42.05 19.8629 42.695 19.0503 43.1465 17.9925C45.9327 18.96 50.2153 20.2241 54.5366 20.6369C58.342 25.0743 60.2124 31.0467 61.1024 36.142Z" fill="#D6AF66"/>
<path d="M55.5621 46.2151C55.5995 44.9329 55.5788 43.7191 55.504 42.5788L56.7811 41.3018L59.361 43.8816L56.5876 46.655C56.2045 47.0381 55.5466 46.7569 55.5621 46.2151Z" fill="#8CB8BD"/>
<path d="M61.1024 36.142C61.3475 37.5093 61.5281 38.8251 61.6442 40.0118H61.6506C62.0518 43.803 61.9408 46.4615 61.9408 46.4615L63.2501 47.7708C63.7248 48.2455 64.5388 47.9063 64.5259 47.2342C64.4936 45.6076 64.3595 43.0161 63.8964 40.0118H64.5207C68.0823 40.0118 70.9704 42.9 70.9704 46.4615V72.2603C70.9704 73.6857 69.8159 74.8402 68.3905 74.8402H46.4615V80H73.5503C74.9692 80 76.1302 78.839 76.1302 77.4201V36.142H61.1024Z" fill="#8CB8BD"/>
<path d="M63.1534 36.142H61.1024C60.2123 31.0467 58.3419 25.0743 54.5366 20.6369C55.4653 20.7272 56.3812 20.7788 57.297 20.7788C59.8898 25.3452 62.3149 32.5431 63.1534 36.142Z" fill="#8CB8BD"/>
<path d="M57.1939 24.4938C52.7952 24.1584 48.4481 23.32 45.0427 22.5073C42.953 20.8433 41.2889 20.3015 41.2889 20.3015C42.05 19.8629 42.695 19.0503 43.1465 17.9925C45.9327 18.96 50.2153 20.2241 54.5366 20.6369C55.5557 21.8236 56.4457 23.1265 57.1939 24.4938Z" fill="#BC9853"/>
<path d="M36.8773 17.9925C37.3287 19.0374 37.9737 19.85 38.7219 20.3015C38.7219 20.3015 35.3809 21.398 32.2722 25.1904C30.2986 27.6026 28.4023 31.1112 27.5381 36.1291C27.0737 38.7219 26.8931 41.7145 27.1124 45.1716L23.2426 41.3018L18.0828 46.4615C18.0828 46.4615 17.8893 41.8693 18.9213 36.142C19.8113 31.0467 21.6817 25.0743 25.4871 20.6369C29.8084 20.2241 34.091 18.96 36.8773 17.9925Z" fill="#D6AF66"/>
<path d="M28.8281 38.709C28.4282 40.9406 28.2386 43.4676 28.3341 46.3312C28.3508 46.833 27.7562 47.1039 27.4014 46.7505L24.5326 43.8816L20.2977 48.1165C19.9507 48.4635 19.3561 48.2236 19.3599 47.7321C19.3651 47.0639 19.387 46.1661 19.4502 45.0942L23.2427 41.3018L27.1125 45.1716C26.8932 41.7145 27.0738 38.7219 27.5382 36.1291L27.6285 36.142H29.3828C29.1635 36.9547 28.9829 37.806 28.8281 38.709Z" fill="#8CB8BD"/>
<path d="M32.2722 25.1904V29.5375C31.1499 31.2789 30.1051 33.4589 29.3827 36.142H27.6284L27.5381 36.1291C28.4023 31.1112 30.2986 27.6026 32.2722 25.1904Z" fill="#8CB8BD"/>
<path d="M38.7219 20.3015C38.7219 20.3015 37.0579 20.8433 34.9811 22.5073C31.5756 23.32 27.2285 24.1584 22.8298 24.4938C23.578 23.1265 24.4681 21.8236 25.4871 20.6369C29.8084 20.2241 34.091 18.96 36.8773 17.9925C37.3288 19.0374 37.9737 19.85 38.7219 20.3015Z" fill="#BC9853"/>
<path d="M38.9747 11.0307C38.144 11.0307 37.8899 12.9231 38.7219 12.9231C39.5513 12.9231 39.8054 11.0307 38.9747 11.0307Z" fill="#E6C482"/>
<path d="M4.47141 18.6375C3.45106 18.4775 2.65517 19.2799 2.24755 20.3015C1.67223 21.7437 1.52518 23.6373 2.96733 23.8631C4.03799 24.0307 3.75807 22.5692 4.14505 21.4767C4.64684 20.0564 5.86325 18.8542 4.47141 18.6375Z" fill="#F7EDC6"/>
<path d="M17.1012 2.63191C14.6116 2.63191 11.7183 6.47336 14.213 6.47336C16.7026 6.47336 19.596 2.63191 17.1012 2.63191Z" fill="#E6C482"/>
<path d="M2.95697 24.3648C2.12753 24.3648 2.12495 25.6548 2.95697 25.6548C3.78769 25.6548 3.78898 24.3648 2.95697 24.3648Z" fill="#F7EDC6"/>
</svg>
