<svg width="31" height="31" viewBox="0 0 31 31" fill="none" xmlns="http://www.w3.org/2000/svg">
<path d="M15.5 0C6.93316 0 0 6.93237 0 15.5C0 24.0667 6.93237 31 15.5 31C24.0668 31 31 24.0676 31 15.5C31 6.93316 24.0676 0 15.5 0ZM15.5 28.8372C8.14586 28.8372 2.1628 22.8542 2.1628 15.5C2.1628 8.14579 8.14586 2.1628 15.5 2.1628C22.8542 2.1628 28.8372 8.14579 28.8372 15.5C28.8372 22.8542 22.8542 28.8372 15.5 28.8372Z" fill="white"/>
<path d="M15.0414 19.6125C14.1844 19.6125 13.4908 20.3266 13.4908 21.1835C13.4908 22.0201 14.164 22.7546 15.0414 22.7546C15.9187 22.7546 16.6123 22.0201 16.6123 21.1835C16.6123 20.3266 15.8982 19.6125 15.0414 19.6125Z" fill="white"/>
<path d="M15.3065 7.71777C12.5521 7.71777 11.2872 9.35006 11.2872 10.4518C11.2872 11.2475 11.9605 11.6148 12.5113 11.6148C13.6131 11.6148 13.1643 10.0437 15.2453 10.0437C16.2654 10.0437 17.0816 10.4926 17.0816 11.4311C17.0816 12.5328 15.939 13.1653 15.2657 13.7366C14.674 14.2465 13.8988 15.0831 13.8988 16.8378C13.8988 17.8987 14.1844 18.2047 15.0209 18.2047C16.0206 18.2047 16.2246 17.7559 16.2246 17.3682C16.2246 16.3073 16.245 15.6952 17.3672 14.8179C17.9181 14.3894 19.6522 13.002 19.6522 11.0842C19.6522 9.16636 17.9181 7.71777 15.3065 7.71777Z" fill="white"/>
</svg>
