<svg width="29" height="29" viewBox="0 0 29 29" fill="none" xmlns="http://www.w3.org/2000/svg">
<g clip-path="url(#clip0_201_1548)">
<path d="M14.5 0C6.48586 0 0 6.48513 0 14.5C0 22.514 6.48513 29 14.5 29C22.5141 29 29 22.5149 29 14.5C29 6.48597 22.5149 0 14.5 0ZM14.5 26.9767C7.62032 26.9767 2.02326 21.3797 2.02326 14.5C2.02326 7.62026 7.62032 2.02326 14.5 2.02326C21.3797 2.02326 26.9767 7.62026 26.9767 14.5C26.9767 21.3797 21.3797 26.9767 14.5 26.9767Z" fill="white"/>
<path d="M14.5004 12.0869C13.6415 12.0869 13.0308 12.4496 13.0308 12.984V20.2559C13.0308 20.714 13.6415 21.172 14.5004 21.172C15.3211 21.172 15.9891 20.714 15.9891 20.2559V12.9839C15.9891 12.4496 15.3211 12.0869 14.5004 12.0869Z" fill="white"/>
<path d="M14.5003 7.60168C13.6224 7.60168 12.9353 8.23153 12.9353 8.95681C12.9353 9.68215 13.6224 10.3311 14.5003 10.3311C15.3592 10.3311 16.0464 9.68215 16.0464 8.95681C16.0464 8.23153 15.3592 7.60168 14.5003 7.60168Z" fill="white"/>
</g>
<defs>
<clipPath id="clip0_201_1548">
<rect width="29" height="29" fill="white"/>
</clipPath>
</defs>
</svg>
