<svg width="66" height="66" viewBox="0 0 66 66" fill="none" xmlns="http://www.w3.org/2000/svg">
<g opacity="0.3">
<path d="M57.4837 7.46137C57.4837 10.2717 56.8237 12.3262 55.706 13.7952C55.6847 13.8272 55.6741 13.8485 55.6528 13.8698C53.3321 16.8717 49.1379 17.4252 44.9863 17.0207C41.4202 16.6801 37.886 15.6369 35.5866 14.8385C35.9699 13.9656 36.1934 12.8798 36.1934 11.7194C36.1934 9.43072 35.3311 7.48266 34.1069 6.72685C38.8866 3.7462 57.4731 -7.21832 57.4837 7.46137Z" fill="white"/>
<path d="M36.086 13.032C35.986 13.6909 35.821 14.3073 35.5868 14.8385C37.8861 15.6369 41.4203 16.6801 44.9865 17.0207C49.1381 17.4252 53.3323 16.8717 55.6529 13.8698C55.6742 13.8485 55.6849 13.8272 55.7062 13.7952C56.8239 12.3262 57.4839 10.2717 57.4839 7.46137C57.4828 6.49373 57.3977 5.64424 57.2444 4.89056C53.7091 12.0675 43.9518 13.429 36.086 13.032Z" fill="white"/>
<path d="M8.51604 7.46138C8.54797 -7.18637 27.1344 3.76751 31.8928 6.72686C30.6686 7.48267 29.8064 9.43073 29.8064 11.7194C29.8064 12.8798 30.0299 13.9656 30.4131 14.8385C28.1138 15.6369 24.5796 16.6801 21.0135 17.0207C16.8512 17.4253 12.6464 16.8717 10.3257 13.8485C9.19733 12.3688 8.50539 10.3036 8.51604 7.46138Z" fill="white"/>
<path d="M9.71149 2.43793C8.961 3.60038 8.52136 5.23015 8.51604 7.46138C8.50539 10.3036 9.19733 12.3688 10.3257 13.8485C12.6464 16.8717 16.8512 17.4253 21.0135 17.0207C24.5796 16.6801 28.1138 15.6369 30.4131 14.8385C30.1683 14.2817 29.999 13.6324 29.9011 12.9383C21.7544 12.6349 13.8056 9.59361 9.71149 2.43793Z" fill="white"/>
<path d="M33 17.042C34.7637 17.042 36.1935 14.659 36.1935 11.7194C36.1935 8.77985 34.7637 6.39685 33 6.39685C31.2363 6.39685 29.8064 8.77985 29.8064 11.7194C29.8064 14.659 31.2363 17.042 33 17.042Z" fill="white"/>
<path d="M36.1935 11.7194C36.1935 14.6575 34.7671 17.042 33 17.042C31.2329 17.042 29.8064 14.6575 29.8064 11.7194C29.8064 11.1659 29.8597 10.6336 29.9555 10.1333C30.36 12.2836 31.5735 13.8485 33 13.8485C34.4265 13.8485 35.64 12.2836 36.0445 10.1333C36.1403 10.6336 36.1935 11.1659 36.1935 11.7194Z" fill="white"/>
<path d="M39.3869 29.8162H43.2192L43.2937 29.8056C43.6769 31.9453 43.826 34.4149 43.645 37.2678L46.8386 34.0743L51.0966 38.3324C51.0966 38.3324 51.2563 34.5427 50.4047 29.8162H50.4153H62.8063V63.8807C62.8063 65.0517 61.8482 66.0098 60.6773 66.0098H38.3224V29.8162H39.3869Z" fill="white"/>
<path d="M27.6774 29.8162V66.0098H5.32256C4.15159 66.0098 3.19353 65.0517 3.19353 63.8807V29.8162H15.5845H15.5951C14.7435 34.5427 14.9032 38.3324 14.9032 38.3324L19.1613 34.0743L22.3548 37.2678C22.1739 34.4149 22.3229 31.9453 22.7061 29.8056L22.7806 29.8162H26.6129H27.6774Z" fill="white"/>
<path d="M27.6775 29.8162H38.3226V66.0098H27.6775V29.8162Z" fill="white"/>
<path d="M15.5951 29.8162C15.3929 30.9446 15.2439 32.0304 15.148 33.0098H3.19353V29.8162H15.5951Z" fill="white"/>
<path d="M27.6774 29.8162V33.0098H22.3442C22.3974 31.8601 22.5252 30.7956 22.7061 29.8056L22.7806 29.8162H27.6774Z" fill="white"/>
<path d="M27.6775 29.8162H38.3226V33.0098H27.6775V29.8162Z" fill="white"/>
<path d="M43.6557 33.0098H38.3224V29.8162H43.2192L43.2937 29.8056C43.4747 30.7956 43.6024 31.8601 43.6557 33.0098Z" fill="white"/>
<path d="M66 14.9343V28.7517C66 29.3372 65.521 29.8162 64.9355 29.8162H62.8064H50.4155H50.4048C49.6703 25.6114 48.1268 20.6827 44.9864 17.0207C49.138 17.4253 53.3322 16.8717 55.6529 13.8698H64.9355C65.521 13.8698 66 14.3488 66 14.9343Z" fill="white"/>
<path d="M43.2938 29.8056L43.2193 29.8162H39.387V20.7785C41.0157 22.7691 42.5806 25.6646 43.2938 29.8056Z" fill="white"/>
<path d="M65.9999 14.9343V28.7517C65.9999 29.3372 65.5209 29.8162 64.9354 29.8162H50.4048C50.277 29.1243 50.1386 28.4111 49.9683 27.6872H60.6199C62.4157 27.6872 63.8709 26.232 63.8709 24.4362V13.8698H64.9354C65.5209 13.8698 65.9999 14.3488 65.9999 14.9343Z" fill="white"/>
<path d="M43.2938 29.8056L43.2193 29.8162H39.387V27.6872H42.8361C43.017 28.3578 43.1661 29.0604 43.2938 29.8056Z" fill="white"/>
<path d="M26.6128 20.7785V29.8162H22.7806L22.706 29.8056C23.4193 25.6646 24.9841 22.7691 26.6128 20.7785Z" fill="white"/>
<path d="M10.3257 13.8484C12.6464 16.8717 16.8512 17.4252 21.0135 17.0207C17.8732 20.6826 16.3296 25.6114 15.5951 29.8162H15.5845H3.19349H1.06446C0.478971 29.8162 -6.10352e-05 29.3372 -6.10352e-05 28.7517V14.913C-6.10352e-05 14.3275 0.478971 13.8484 1.06446 13.8484H10.3257Z" fill="white"/>
<path d="M27.6774 61.7517V66.0098H5.32256C4.15159 66.0098 3.19353 65.0517 3.19353 63.8807V61.7517H27.6774Z" fill="white"/>
<path d="M27.6775 61.7517H38.3226V66.0098H27.6775V61.7517Z" fill="white"/>
<path d="M31.9354 16.744C32.2654 16.9356 32.6274 17.042 33 17.042C33.3725 17.042 33.7238 16.9356 34.0538 16.744C34.0538 16.744 36.8109 17.6488 39.3871 20.7785V29.8162H38.3225H27.6774H26.6129V20.7785C29.1783 17.6488 31.9354 16.744 31.9354 16.744Z" fill="white"/>
<path d="M26.6128 27.6872V29.8162H22.7806L22.706 29.8056C22.8338 29.0604 22.9828 28.3578 23.1638 27.6872H26.6128Z" fill="white"/>
<path d="M16.0316 27.6872C15.8612 28.4111 15.7228 29.1243 15.5951 29.8162H1.06446C0.478971 29.8162 -6.10352e-05 29.3372 -6.10352e-05 28.7517V27.6872H16.0316Z" fill="white"/>
<path d="M26.6129 27.6872H39.3871V29.8162H26.6129V27.6872Z" fill="white"/>
<path d="M39.3871 20.7785V23.972C36.8109 20.8423 34.0538 19.9375 34.0538 19.9375C33.7238 20.1291 33.3725 20.2356 33 20.2356C32.6274 20.2356 32.2654 20.1291 31.9354 19.9375C31.9354 19.9375 29.1783 20.8423 26.6129 23.972V20.7785C29.1783 17.6488 31.9354 16.744 31.9354 16.744C32.2654 16.9356 32.6274 17.042 33 17.042C33.3725 17.042 33.7238 16.9356 34.0538 16.744C34.0538 16.744 36.8109 17.6488 39.3871 20.7785Z" fill="white"/>
<path d="M50.4047 29.8162C51.2563 34.5427 51.0967 38.3323 51.0967 38.3323L46.8386 34.0743L43.6451 37.2678C43.826 34.4149 43.677 31.9453 43.2938 29.8056C42.5805 25.6646 41.0157 22.7691 39.387 20.7785C36.8109 17.6488 34.0538 16.744 34.0538 16.744C34.6818 16.382 35.2141 15.7114 35.5867 14.8385C37.886 15.6369 41.4202 16.6801 44.9863 17.0207C48.1267 20.6827 49.6702 25.6114 50.4047 29.8162Z" fill="white"/>
<path d="M45.8328 38.129C45.8637 37.0709 45.8466 36.0692 45.7849 35.1282L46.8388 34.0743L48.9678 36.2033L46.6791 38.492C46.3629 38.8082 45.82 38.5761 45.8328 38.129Z" fill="white"/>
<path d="M50.4047 29.8162C50.6069 30.9446 50.756 32.0304 50.8518 33.0098H50.8571C51.1882 36.1384 51.0966 38.3324 51.0966 38.3324L52.1771 39.4128C52.5689 39.8046 53.2406 39.5246 53.2299 38.97C53.2033 37.6276 53.0926 35.489 52.7104 33.0098H53.2257C56.1648 33.0098 58.5482 35.3932 58.5482 38.3324V59.6227C58.5482 60.799 57.5955 61.7517 56.4192 61.7517H38.3224V66.0098H60.6773C61.8482 66.0098 62.8063 65.0517 62.8063 63.8808V29.8162H50.4047Z" fill="white"/>
<path d="M52.0974 29.8162H50.4048C49.6703 25.6114 48.1268 20.6827 44.9864 17.0207C45.7529 17.0952 46.5087 17.1378 47.2645 17.1378C49.4042 20.9062 51.4055 26.8462 52.0974 29.8162Z" fill="white"/>
<path d="M47.1792 20.2036C43.5492 19.9269 39.9618 19.2349 37.1515 18.5643C35.427 17.1911 34.0538 16.744 34.0538 16.744C34.6818 16.382 35.2141 15.7114 35.5867 14.8385C37.886 15.6369 41.4202 16.6801 44.9863 17.0207C45.8273 18.0001 46.5618 19.0752 47.1792 20.2036Z" fill="white"/>
<path d="M30.4131 14.8385C30.7857 15.7007 31.3179 16.3714 31.9353 16.744C31.9353 16.744 29.1782 17.6488 26.6128 20.7785C24.9841 22.7691 23.4192 25.6646 22.706 29.8056C22.3228 31.9453 22.1737 34.4149 22.3547 37.2678L19.1611 34.0743L14.9031 38.3323C14.9031 38.3323 14.7434 34.5427 15.595 29.8162C16.3295 25.6114 17.8731 20.6827 21.0134 17.0207C24.5795 16.6801 28.1137 15.6369 30.4131 14.8385Z" fill="white"/>
<path d="M23.7706 31.9346C23.4406 33.7762 23.2841 35.8616 23.3629 38.2248C23.3767 38.6389 22.886 38.8625 22.5932 38.5708L20.2257 36.2033L16.7309 39.6981C16.4446 39.9845 15.9538 39.7865 15.957 39.3809C15.9613 38.8295 15.9794 38.0886 16.0315 37.204L19.1612 34.0743L22.3548 37.2678C22.1738 34.4149 22.3228 31.9453 22.7061 29.8056L22.7806 29.8162H24.2283C24.0474 30.4869 23.8983 31.1894 23.7706 31.9346Z" fill="white"/>
<path d="M26.6128 20.7785V24.3659C25.6867 25.803 24.8244 27.602 24.2283 29.8162H22.7806L22.706 29.8056C23.4193 25.6646 24.9841 22.7691 26.6128 20.7785Z" fill="white"/>
<path d="M31.9354 16.744C31.9354 16.744 30.5622 17.1911 28.8483 18.5643C26.038 19.2349 22.4506 19.9269 18.8206 20.2036C19.438 19.0752 20.1725 18.0001 21.0135 17.0207C24.5796 16.6801 28.1138 15.6369 30.4132 14.8385C30.7858 15.7007 31.318 16.3714 31.9354 16.744Z" fill="white"/>
<path d="M32.144 9.09326C31.4585 9.09326 31.2488 10.6549 31.9354 10.6549C32.6199 10.6549 32.8296 9.09326 32.144 9.09326Z" fill="white"/>
<path d="M3.6704 15.3707C2.82837 15.2387 2.17156 15.9008 1.83517 16.7439C1.3604 17.9341 1.23904 19.4968 2.42917 19.6831C3.31272 19.8215 3.08172 18.6154 3.40108 17.7137C3.81517 16.5417 4.81901 15.5495 3.6704 15.3707Z" fill="white"/>
<path d="M14.093 2.1622C12.0385 2.1622 9.6508 5.33233 11.7096 5.33233C13.7641 5.33233 16.1518 2.1622 14.093 2.1622Z" fill="white"/>
<path d="M2.42066 20.0972C1.73618 20.0972 1.73405 21.1617 2.42066 21.1617C3.10621 21.1617 3.10728 20.0972 2.42066 20.0972Z" fill="white"/>
</g>
<g clip-path="url(#clip0_208_6468)">
<path d="M42.3437 28.8418H39.8802V23.2206C39.8802 19.2337 36.5683 15.9902 32.4974 15.9902C28.4265 15.9902 25.1146 19.2337 25.1146 23.2206V28.8418H22.6562C20.3946 28.8418 18.5546 30.6818 18.5546 32.9434V46.8887C18.5546 49.1503 20.3946 50.9902 22.6562 50.9902H42.3437C44.6053 50.9902 46.4453 49.1503 46.4453 46.8887V32.9434C46.4453 30.6818 44.6053 28.8418 42.3437 28.8418ZM27.849 23.2206C27.849 20.7415 29.9343 18.7246 32.4974 18.7246C35.0605 18.7246 37.1458 20.7415 37.1458 23.2206V28.8418H27.849V23.2206ZM43.7109 46.8887C43.7109 47.6425 43.0976 48.2559 42.3437 48.2559H22.6562C21.9023 48.2559 21.289 47.6425 21.289 46.8887V32.9434C21.289 32.1895 21.9023 31.5762 22.6562 31.5762H42.3437C43.0976 31.5762 43.7109 32.1895 43.7109 32.9434V46.8887Z" fill="white"/>
<path d="M32.4999 35.541C31.103 35.541 29.9706 36.6734 29.9706 38.0703C29.9706 38.9623 30.4328 39.7458 31.1302 40.1962V43.1973C31.1302 43.9523 31.7423 44.5645 32.4974 44.5645C33.2524 44.5645 33.8646 43.9523 33.8646 43.1973V40.1994C34.5649 39.7496 35.0292 38.9645 35.0292 38.0703C35.0292 36.6734 33.8969 35.541 32.4999 35.541Z" fill="white"/>
</g>
<defs>
<clipPath id="clip0_208_6468">
<rect width="35" height="35" fill="white" transform="translate(14.9999 15.9902)"/>
</clipPath>
</defs>
</svg>
