<svg width="28" height="28" viewBox="0 0 28 28" fill="none" xmlns="http://www.w3.org/2000/svg">
<g clip-path="url(#clip0_201_1558)">
<path d="M27.124 13.1254H16.041C15.558 13.1254 15.166 12.7334 15.166 12.2505C15.166 11.7675 15.558 11.3755 16.041 11.3755H27.124C27.607 11.3755 27.999 11.7675 27.999 12.2505C27.999 12.7334 27.607 13.1254 27.124 13.1254Z" fill="white"/>
<path d="M22.7493 17.5003C22.5252 17.5003 22.3013 17.4151 22.1309 17.2437C21.7891 16.9017 21.7891 16.3476 22.1309 16.0058L25.8875 12.2494L22.1309 8.49273C21.7891 8.15094 21.7891 7.59682 22.1309 7.25503C22.4729 6.91304 23.027 6.91304 23.3688 7.25503L27.7436 11.6299C28.0854 11.9717 28.0854 12.5258 27.7436 12.8676L23.3688 17.2425C23.1972 17.4151 22.9734 17.5003 22.7493 17.5003Z" fill="white"/>
<path d="M9.33311 28.0002C9.08339 28.0002 8.84649 27.9652 8.60981 27.8917L1.58888 25.5526C0.633586 25.2189 0 24.3288 0 23.3338V2.33443C0 1.04761 1.04651 0.00109863 2.33333 0.00109863C2.58284 0.00109863 2.81974 0.0361317 3.05664 0.109616L10.0774 2.44871C11.0329 2.78238 11.6662 3.67252 11.6662 4.66755V25.6669C11.6662 26.9537 10.6199 28.0002 9.33311 28.0002ZM2.33333 1.75104C2.01248 1.75104 1.74995 2.01358 1.74995 2.33443V23.3338C1.74995 23.5822 1.91678 23.8131 2.15475 23.896L9.14278 26.2246C9.19298 26.2409 9.25835 26.2503 9.33311 26.2503C9.65396 26.2503 9.91628 25.9877 9.91628 25.6669V4.66755C9.91628 4.41911 9.74945 4.18819 9.51148 4.10531L2.52345 1.77668C2.47325 1.76044 2.40788 1.75104 2.33333 1.75104Z" fill="white"/>
<path d="M17.7909 9.33397C17.3079 9.33397 16.916 8.94198 16.916 8.45899V3.20916C16.916 2.40532 16.2617 1.7508 15.4578 1.7508H2.33322C1.85024 1.7508 1.45825 1.35881 1.45825 0.875827C1.45825 0.392841 1.85024 0.000854492 2.33322 0.000854492H15.4578C17.2276 0.000854492 18.6659 1.43935 18.6659 3.20916V8.45899C18.6659 8.94198 18.2739 9.33397 17.7909 9.33397Z" fill="white"/>
<path d="M15.4579 24.5001H10.7912C10.3082 24.5001 9.91626 24.1081 9.91626 23.6251C9.91626 23.1421 10.3082 22.7502 10.7912 22.7502H15.4579C16.2617 22.7502 16.916 22.0956 16.916 21.2918V16.042C16.916 15.559 17.308 15.167 17.791 15.167C18.274 15.167 18.666 15.559 18.666 16.042V21.2918C18.666 23.0616 17.2277 24.5001 15.4579 24.5001Z" fill="white"/>
</g>
<defs>
<clipPath id="clip0_201_1558">
<rect width="28" height="28" fill="white"/>
</clipPath>
</defs>
</svg>
