<svg width="20" height="22" viewBox="0 0 20 22" fill="none" xmlns="http://www.w3.org/2000/svg">
<path d="M17.2 3H2.8C1.81 3 1.009 3.84375 1.009 4.875L1 16.125C1 17.1562 1.81 18 2.8 18H17.2C18.19 18 19 17.1562 19 16.125V4.875C19 3.84375 18.19 3 17.2 3ZM16.84 6.98438L10.477 11.1281C10.189 11.3156 9.811 11.3156 9.523 11.1281L3.16 6.98438C2.935 6.83437 2.8 6.58125 2.8 6.30938C2.8 5.68125 3.457 5.30625 3.97 5.63437L10 9.5625L16.03 5.63437C16.543 5.30625 17.2 5.68125 17.2 6.30938C17.2 6.58125 17.065 6.83437 16.84 6.98438Z" fill="#151515"/>
</svg>
