<svg width="22" height="22" viewBox="0 0 22 22" fill="none" xmlns="http://www.w3.org/2000/svg">
<g clip-path="url(#clip0_5_635)">
<path d="M21.3119 9.62438C20.9324 9.62438 20.6244 9.93236 20.6244 10.3118V18.0966L15.1248 20.2965V13.0617C15.1248 12.6822 14.8168 12.3742 14.4373 12.3742C14.0579 12.3742 13.7499 12.6822 13.7499 13.0617V20.2951L8.25022 18.0952V7.20315L11.4359 8.4777C11.7837 8.61794 12.188 8.44745 12.3296 8.0941C12.4712 7.74212 12.2993 7.34202 11.946 7.2004L7.83087 5.55326C7.83087 5.55326 7.83087 5.55326 7.82949 5.55326L7.81849 5.54913C7.65488 5.48313 7.47201 5.48313 7.3084 5.54913L7.29603 5.55326C7.29603 5.55326 7.29603 5.55326 7.29465 5.55326L0.432455 8.29896C0.172597 8.40345 0.000732422 8.65506 0.000732422 8.93692V21.3111C0.000732422 21.5394 0.11485 21.7525 0.303214 21.8804C0.418706 21.9587 0.552073 21.9986 0.688189 21.9986C0.774809 21.9986 0.861429 21.9821 0.943923 21.9491L7.56276 19.3024L14.1692 21.945C14.1692 21.945 14.1692 21.945 14.1706 21.945L14.183 21.9505C14.3466 22.0165 14.5294 22.0165 14.6931 21.9505L14.7054 21.945C14.7054 21.945 14.7054 21.945 14.7068 21.945L21.569 19.2007C21.8275 19.0948 21.9994 18.8432 21.9994 18.5613V10.3118C21.9994 9.93236 21.6914 9.62438 21.3119 9.62438ZM6.8753 18.0952L1.37565 20.2951V9.40164L6.8753 7.20178V18.0952Z" fill="#858585"/>
<path d="M17.1871 2.74988C16.0501 2.74988 15.1248 3.6752 15.1248 4.81225C15.1248 5.9493 16.0501 6.87462 17.1871 6.87462C18.3242 6.87462 19.2495 5.9493 19.2495 4.81225C19.2495 3.6752 18.3242 2.74988 17.1871 2.74988ZM17.1871 5.49971C16.8077 5.49971 16.4997 5.19173 16.4997 4.81225C16.4997 4.43277 16.8077 4.12479 17.1871 4.12479C17.5666 4.12479 17.8746 4.43277 17.8746 4.81225C17.8746 5.19173 17.5666 5.49971 17.1871 5.49971Z" fill="#858585"/>
<path d="M17.1872 0C14.5336 0 12.375 2.15862 12.375 4.8122C12.375 7.28155 16.2358 11.6551 16.6757 12.146C16.8063 12.2904 16.992 12.3742 17.1872 12.3742C17.3824 12.3742 17.5681 12.2904 17.6987 12.146C18.1386 11.6551 21.9994 7.28155 21.9994 4.8122C21.9994 2.15862 19.8408 0 17.1872 0ZM17.1872 10.6377C15.6858 8.8572 13.7499 6.12387 13.7499 4.8122C13.7499 2.91757 15.2926 1.37491 17.1872 1.37491C19.0818 1.37491 20.6245 2.91757 20.6245 4.8122C20.6245 6.12249 18.6886 8.8572 17.1872 10.6377Z" fill="#858585"/>
</g>
<defs>
<clipPath id="clip0_5_635">
<rect width="22" height="22" fill="white"/>
</clipPath>
</defs>
</svg>
