<svg width="80" height="96" viewBox="0 0 80 96" fill="none" xmlns="http://www.w3.org/2000/svg">
<path d="M67.0885 52.0132C65.8344 52.0132 64.671 52.4112 63.7126 53.0872C63.0723 50.4776 60.7394 48.5375 57.9665 48.5375C56.5746 48.5375 55.2941 49.0276 54.282 49.8446C53.3726 47.7149 51.278 46.2204 48.8443 46.2204C47.6655 46.2204 46.567 46.5724 45.6433 47.1759V35.9945C45.6433 32.6891 42.9871 30 39.7223 30C36.4573 30 33.8012 32.6891 33.8012 35.9945V66.4466L30.3843 63.232C28.8376 61.6777 26.7888 60.8228 24.6105 60.8228C24.6036 60.8228 24.5965 60.8228 24.5897 60.8228C22.3948 60.8282 20.3344 61.7008 18.7882 63.2798C17.3848 64.7128 17.3907 67.0387 18.8012 68.465L38.9832 88.8631C42.6871 92.944 47.9402 95.2839 53.4055 95.2839C64.2153 95.2839 73.0098 86.3579 73.0098 75.3863V64.959V63.8003V58.0074C73.0096 54.7023 70.3534 52.0132 67.0885 52.0132ZM70.2895 63.8005V64.9591V75.3865C70.2895 84.858 62.7153 92.5639 53.4053 92.5639C48.6901 92.5639 44.1556 90.5358 40.9646 86.9997C40.9553 86.9894 40.9451 86.9806 40.9356 86.9707C40.9305 86.9654 40.9263 86.9597 40.9212 86.9546L20.735 66.5518C20.3627 66.1754 20.3612 65.5613 20.7317 65.1829C21.7637 64.1289 23.1363 63.5467 24.5965 63.543C24.6011 63.543 24.6055 63.543 24.6102 63.543C26.065 63.543 27.4348 64.118 28.4685 65.1632C28.48 65.1748 28.4916 65.1861 28.5035 65.1973L34.2293 70.5841C34.6246 70.9559 35.2033 71.0571 35.7008 70.842C36.1989 70.6266 36.5214 70.136 36.5214 69.5934V35.9945C36.5214 34.1891 37.9573 32.7201 39.7223 32.7201C41.4873 32.7201 42.9232 34.1891 42.9232 35.9945V55.6905C42.9232 55.6912 42.9233 55.6917 42.9233 55.6924V56.849C42.9233 57.6002 43.5324 58.2091 44.2834 58.2091C45.0346 58.2091 45.6435 57.6 45.6435 56.849L45.6433 52.2146C45.6433 50.4092 47.0792 48.9404 48.8443 48.9404C50.6094 48.9404 52.0453 50.4092 52.0453 52.2146V54.5318V59.1662C52.0453 59.9174 52.6543 60.5263 53.4053 60.5263C54.1564 60.5263 54.7654 59.9172 54.7654 59.1662V54.5318C54.7654 52.7264 56.2013 51.2575 57.9664 51.2575C59.7313 51.2575 61.1672 52.7264 61.1672 54.5318V61.4833C61.1672 62.2344 61.7763 62.8433 62.5273 62.8433C63.2784 62.8433 63.8874 62.2343 63.8874 61.4833V58.0075C63.8874 56.2021 65.3233 54.7332 67.0884 54.7332C68.8534 54.7332 70.2893 56.2021 70.2893 58.0075V63.8005H70.2895Z" fill="#C3283B"/>
<path d="M41.3603 5.20705L41.3602 25.1834L38.6399 25.1834L38.64 5.20685L34.7683 9.07852C34.2373 9.60958 33.376 9.60958 32.8449 9.07852C32.3139 8.54745 32.3138 7.68625 32.8449 7.15509L39.0383 0.961674C39.5694 0.430612 40.4306 0.430514 40.9618 0.961674L47.1554 7.15528C47.6864 7.68635 47.6864 8.54765 47.1554 9.07871C46.6243 9.60977 45.7631 9.60987 45.2319 9.07871L41.3603 5.20705Z" fill="#C3283B"/>
<path d="M5.68532 33.6615L25.6616 33.6616L25.6616 36.3818L5.68512 36.3817L9.55679 40.2534C10.0878 40.7845 10.0878 41.6458 9.55679 42.1768C9.02572 42.7079 8.16452 42.708 7.63336 42.1768L1.43995 35.9834C0.908883 35.4523 0.908785 34.5911 1.43995 34.06L7.63356 27.8664C8.16462 27.3353 9.02592 27.3353 9.55698 27.8664C10.088 28.3974 10.0881 29.2586 9.55698 29.7898L5.68532 33.6615Z" fill="#C3283B"/>
<path d="M74.3147 36.382L54.3384 36.3819L54.3384 33.6616L74.3149 33.6617L70.4432 29.7901C69.9122 29.259 69.9122 28.3977 70.4432 27.8666C70.9743 27.3356 71.8355 27.3355 72.3666 27.8666L78.5601 34.0601C79.0911 34.5911 79.0912 35.4523 78.5601 35.9835L72.3664 42.1771C71.8354 42.7082 70.9741 42.7082 70.443 42.1771C69.912 41.646 69.9119 40.7848 70.443 40.2537L74.3147 36.382Z" fill="#C3283B"/>
</svg>
