<svg width="20" height="20" viewBox="0 0 20 20" fill="none" xmlns="http://www.w3.org/2000/svg">
<path d="M17.1576 8.55346L4.58579 1.24115C4.32607 1.08698 4.02924 1.00378 3.72593 1.00013C3.42262 0.996469 3.12381 1.07249 2.86032 1.22035C2.59683 1.36821 2.3782 1.58255 2.22698 1.84126C2.07577 2.09998 1.99743 2.3937 2.00006 2.69214V17.3138C1.99992 17.6113 2.07981 17.9035 2.23162 18.1608C2.38342 18.4181 2.60173 18.6312 2.86438 18.7786C3.12702 18.926 3.42463 19.0024 3.72698 18.9999C4.02932 18.9975 4.32563 18.9164 4.58579 18.7648L17.1576 11.4554C17.4142 11.3065 17.6268 11.0942 17.7746 10.8397C17.9223 10.5851 18 10.2971 18 10.004C18 9.71084 17.9223 9.42278 17.7746 9.16824C17.6268 8.91369 17.4142 8.70146 17.1576 8.55249V8.55346Z" fill="#151515"/>
</svg>
