<svg width="25" height="25" viewBox="0 0 25 25" fill="none" xmlns="http://www.w3.org/2000/svg">
<g clip-path="url(#clip0_5_647)">
<path d="M22.2979 0H18.7988C18.3943 0 18.0664 0.32793 18.0664 0.732422C18.0664 1.13691 18.3943 1.46484 18.7988 1.46484H22.2979C22.9801 1.46484 23.5352 2.01992 23.5352 2.7022V6.20117C23.5352 6.60566 23.8631 6.93359 24.2676 6.93359C24.6721 6.93359 25 6.60566 25 6.20117V2.7022C25 1.21221 23.7878 0 22.2979 0Z" fill="white"/>
<path d="M0.732422 6.93359C1.13691 6.93359 1.46484 6.60566 1.46484 6.20117V2.7022C1.46484 2.01992 2.01992 1.46484 2.70215 1.46484H6.20117C6.60566 1.46484 6.93359 1.13691 6.93359 0.732422C6.93359 0.32793 6.60566 0 6.20117 0H2.70215C1.21221 0 0 1.21221 0 2.7022V6.20117C0 6.60566 0.32793 6.93359 0.732422 6.93359Z" fill="white"/>
<path d="M6.20117 23.5352H2.70215C2.01992 23.5352 1.46484 22.9801 1.46484 22.2978V18.7988C1.46484 18.3943 1.13691 18.0664 0.732422 18.0664C0.32793 18.0664 0 18.3943 0 18.7988V22.2978C0 23.7878 1.21221 25 2.70215 25H6.20117C6.60566 25 6.93359 24.6721 6.93359 24.2676C6.93359 23.8631 6.60566 23.5352 6.20117 23.5352Z" fill="white"/>
<path d="M24.2676 18.0664C23.8631 18.0664 23.5352 18.3943 23.5352 18.7988V22.2978C23.5352 22.9801 22.9801 23.5352 22.2979 23.5352H18.7988C18.3943 23.5352 18.0664 23.8631 18.0664 24.2676C18.0664 24.6721 18.3943 25 18.7988 25H22.2979C23.7878 25 25 23.7878 25 22.2978V18.7988C25 18.3943 24.6721 18.0664 24.2676 18.0664Z" fill="white"/>
<path d="M16.6819 5.37109H19.0049C19.3221 5.37109 19.5802 5.62915 19.5802 5.94639V8.26934C19.5802 8.67383 19.9081 9.00176 20.3126 9.00176C20.7171 9.00176 21.045 8.67383 21.045 8.26934V5.94639C21.045 4.82144 20.1298 3.90625 19.0049 3.90625H16.6819C16.2774 3.90625 15.9495 4.23418 15.9495 4.63867C15.9495 5.04316 16.2774 5.37109 16.6819 5.37109Z" fill="white"/>
<path d="M3.95508 5.94639V8.26934C3.95508 8.67383 4.28301 9.00176 4.6875 9.00176C5.09199 9.00176 5.41992 8.67383 5.41992 8.26934V5.94639C5.41992 5.62915 5.67803 5.37109 5.99521 5.37109H8.31821C8.7227 5.37109 9.05063 5.04316 9.05063 4.63867C9.05063 4.23418 8.7227 3.90625 8.31821 3.90625H5.99521C4.87031 3.90625 3.95508 4.82144 3.95508 5.94639Z" fill="white"/>
<path d="M8.31821 19.5313H5.99521C5.67798 19.5313 5.41992 19.2732 5.41992 18.956V16.6331C5.41992 16.2286 5.09199 15.9006 4.6875 15.9006C4.28301 15.9006 3.95508 16.2286 3.95508 16.6331V18.956C3.95508 20.081 4.87031 20.9961 5.99521 20.9961H8.31821C8.7227 20.9961 9.05063 20.6682 9.05063 20.2637C9.05063 19.8592 8.7227 19.5313 8.31821 19.5313Z" fill="white"/>
<path d="M21.045 18.956V16.6331C21.045 16.2286 20.7171 15.9006 20.3126 15.9006C19.9081 15.9006 19.5802 16.2286 19.5802 16.6331V18.956C19.5802 19.2732 19.3221 19.5313 19.0049 19.5313H16.6819C16.2774 19.5313 15.9495 19.8592 15.9495 20.2637C15.9495 20.6682 16.2774 20.9961 16.6819 20.9961H19.0049C20.1298 20.9961 21.045 20.081 21.045 18.956Z" fill="white"/>
<path d="M0.0488281 12.5C0.0488281 12.9045 0.376758 13.2324 0.78125 13.2324H24.2188C24.6232 13.2324 24.9512 12.9045 24.9512 12.5C24.9512 12.0955 24.6232 11.7676 24.2188 11.7676H0.78125C0.376758 11.7676 0.0488281 12.0955 0.0488281 12.5Z" fill="white"/>
</g>
<defs>
<clipPath id="clip0_5_647">
<rect width="25" height="25" fill="white"/>
</clipPath>
</defs>
</svg>
