<svg width="22" height="22" viewBox="0 0 22 22" fill="none" xmlns="http://www.w3.org/2000/svg">
<path d="M18.8383 1H16.0391C15.7155 1 15.4531 1.26234 15.4531 1.58594C15.4531 1.90953 15.7155 2.17188 16.0391 2.17188H18.8383C19.3841 2.17188 19.8281 2.61594 19.8281 3.16176V5.96094C19.8281 6.28453 20.0905 6.54688 20.4141 6.54688C20.7377 6.54688 21 6.28453 21 5.96094V3.16176C21 1.96977 20.0302 1 18.8383 1Z" fill="#858585"/>
<path d="M1.58594 6.54688C1.90953 6.54688 2.17188 6.28453 2.17188 5.96094V3.16176C2.17188 2.61594 2.61594 2.17188 3.16172 2.17188H5.96094C6.28454 2.17188 6.54688 1.90953 6.54688 1.58594C6.54688 1.26234 6.28454 1 5.96094 1H3.16172C1.96977 1 1 1.96977 1 3.16176V5.96094C1 6.28453 1.26234 6.54688 1.58594 6.54688Z" fill="#858585"/>
<path d="M5.96094 19.8281H3.16172C2.61594 19.8281 2.17188 19.3841 2.17188 18.8382V16.0391C2.17188 15.7155 1.90953 15.4531 1.58594 15.4531C1.26234 15.4531 1 15.7155 1 16.0391V18.8382C1 20.0302 1.96977 21 3.16172 21H5.96094C6.28454 21 6.54688 20.7377 6.54688 20.4141C6.54688 20.0905 6.28454 19.8281 5.96094 19.8281Z" fill="#858585"/>
<path d="M20.4141 15.4531C20.0905 15.4531 19.8281 15.7155 19.8281 16.0391V18.8382C19.8281 19.3841 19.3841 19.8281 18.8383 19.8281H16.0391C15.7155 19.8281 15.4531 20.0905 15.4531 20.4141C15.4531 20.7377 15.7155 21 16.0391 21H18.8383C20.0303 21 21 20.0302 21 18.8382V16.0391C21 15.7155 20.7377 15.4531 20.4141 15.4531Z" fill="#858585"/>
<path d="M7.95296 9.424C8.00896 9.032 8.11696 8.686 8.27696 8.386C8.43696 8.082 8.63896 7.828 8.88296 7.624C9.13096 7.42 9.41296 7.266 9.72897 7.162C10.049 7.054 10.393 7 10.761 7C11.125 7 11.461 7.052 11.769 7.156C12.077 7.26 12.341 7.408 12.561 7.6C12.785 7.792 12.959 8.024 13.083 8.296C13.207 8.568 13.269 8.87 13.269 9.202C13.269 9.474 13.233 9.718 13.161 9.934C13.093 10.146 12.993 10.332 12.861 10.492C12.733 10.652 12.577 10.788 12.393 10.9C12.209 11.012 12.003 11.104 11.775 11.176C12.335 11.32 12.755 11.568 13.035 11.92C13.319 12.268 13.461 12.704 13.461 13.228C13.461 13.624 13.385 13.98 13.233 14.296C13.085 14.612 12.881 14.882 12.621 15.106C12.361 15.326 12.057 15.496 11.709 15.616C11.365 15.732 10.995 15.79 10.599 15.79C10.143 15.79 9.75296 15.734 9.42896 15.622C9.10496 15.506 8.83096 15.348 8.60696 15.148C8.38296 14.948 8.19896 14.712 8.05496 14.44C7.91096 14.164 7.78896 13.866 7.68896 13.546L8.15096 13.354C8.27096 13.302 8.38696 13.288 8.49896 13.312C8.61496 13.336 8.69896 13.402 8.75096 13.51C8.80296 13.622 8.86696 13.756 8.94296 13.912C9.02296 14.068 9.13096 14.218 9.26696 14.362C9.40296 14.506 9.57496 14.628 9.78296 14.728C9.99497 14.828 10.263 14.878 10.587 14.878C10.887 14.878 11.149 14.83 11.373 14.734C11.601 14.634 11.789 14.506 11.937 14.35C12.089 14.194 12.203 14.02 12.279 13.828C12.355 13.636 12.393 13.446 12.393 13.258C12.393 13.026 12.363 12.814 12.303 12.622C12.243 12.43 12.131 12.264 11.967 12.124C11.803 11.984 11.577 11.874 11.289 11.794C11.005 11.714 10.639 11.674 10.191 11.674V10.9C10.559 10.896 10.871 10.856 11.127 10.78C11.387 10.704 11.597 10.6 11.757 10.468C11.921 10.336 12.039 10.178 12.111 9.994C12.187 9.81 12.225 9.606 12.225 9.382C12.225 9.134 12.185 8.918 12.105 8.734C12.029 8.55 11.923 8.398 11.787 8.278C11.651 8.158 11.489 8.068 11.301 8.008C11.117 7.948 10.917 7.918 10.701 7.918C10.485 7.918 10.283 7.95 10.095 8.014C9.91096 8.078 9.74696 8.168 9.60297 8.284C9.46297 8.396 9.34496 8.53 9.24897 8.686C9.15297 8.842 9.08496 9.014 9.04496 9.202C8.99296 9.342 8.92696 9.436 8.84696 9.484C8.77096 9.528 8.65896 9.54 8.51096 9.52L7.95296 9.424Z" fill="#858585"/>
</svg>
