<svg width="32" height="32" viewBox="0 0 32 32" fill="none" xmlns="http://www.w3.org/2000/svg">
<g clip-path="url(#clip0_347_3)">
<path d="M28.4419 0.126953H23.9987C23.485 0.126953 23.0686 0.543372 23.0686 1.05701C23.0686 1.57065 23.485 1.98707 23.9987 1.98707H28.4419C29.3082 1.98707 30.0131 2.69193 30.0131 3.55831V8.00146C30.0131 8.5151 30.4295 8.93152 30.9431 8.93152C31.4568 8.93152 31.8732 8.5151 31.8732 8.00146V3.55831C31.8732 1.66626 30.3339 0.126953 28.4419 0.126953Z" fill="white"/>
<path d="M1.05726 8.93152C1.5709 8.93152 1.98732 8.5151 1.98732 8.00146V3.55831C1.98732 2.69193 2.69218 1.98707 3.5585 1.98707H8.00171C8.51535 1.98707 8.93177 1.57065 8.93177 1.05701C8.93177 0.543372 8.51535 0.126953 8.00171 0.126953H3.5585C1.66651 0.126953 0.127197 1.66626 0.127197 3.55831V8.00146C0.127197 8.5151 0.543616 8.93152 1.05726 8.93152Z" fill="white"/>
<path d="M8.00171 30.0128H3.5585C2.69218 30.0128 1.98732 29.3079 1.98732 28.4416V23.9984C1.98732 23.4848 1.5709 23.0684 1.05726 23.0684C0.543616 23.0684 0.127197 23.4848 0.127197 23.9984V28.4416C0.127197 30.3336 1.66651 31.8729 3.5585 31.8729H8.00171C8.51535 31.8729 8.93177 31.4565 8.93177 30.9429C8.93177 30.4292 8.51535 30.0128 8.00171 30.0128Z" fill="white"/>
<path d="M30.9431 23.0684C30.4295 23.0684 30.0131 23.4848 30.0131 23.9984V28.4416C30.0131 29.3079 29.3082 30.0128 28.4419 30.0128H23.9987C23.485 30.0128 23.0686 30.4292 23.0686 30.9429C23.0686 31.4565 23.485 31.8729 23.9987 31.8729H28.4419C30.3339 31.8729 31.8732 30.3336 31.8732 28.4416V23.9984C31.8732 23.4848 31.4568 23.0684 30.9431 23.0684Z" fill="white"/>
<path d="M15.4813 20.812C15.9133 20.812 16.3033 20.743 16.6513 20.605C17.0053 20.467 17.3053 20.275 17.5513 20.029C17.8033 19.783 17.9953 19.492 18.1273 19.156C18.2653 18.82 18.3343 18.454 18.3343 18.058C18.3343 17.638 18.2683 17.26 18.1363 16.924C18.0043 16.582 17.8153 16.294 17.5693 16.06C17.3293 15.82 17.0413 15.637 16.7053 15.511C16.3693 15.385 16.0003 15.322 15.5983 15.322C15.1663 15.322 14.7763 15.397 14.4283 15.547C14.0803 15.691 13.7833 15.889 13.5373 16.141C13.2973 16.387 13.1113 16.675 12.9793 17.005C12.8533 17.329 12.7903 17.668 12.7903 18.022C12.7903 18.436 12.8503 18.814 12.9703 19.156C13.0903 19.498 13.2643 19.792 13.4923 20.038C13.7263 20.284 14.0083 20.476 14.3383 20.614C14.6743 20.746 15.0553 20.812 15.4813 20.812ZM14.5453 13.936C14.4313 14.08 14.3203 14.221 14.2123 14.359C14.1103 14.491 14.0113 14.623 13.9153 14.755C14.2213 14.545 14.5573 14.383 14.9233 14.269C15.2893 14.155 15.6883 14.098 16.1203 14.098C16.6423 14.098 17.1343 14.185 17.5963 14.359C18.0583 14.527 18.4603 14.776 18.8023 15.106C19.1503 15.43 19.4263 15.832 19.6303 16.312C19.8343 16.786 19.9363 17.329 19.9363 17.941C19.9363 18.535 19.8283 19.087 19.6123 19.597C19.3963 20.107 19.0933 20.551 18.7033 20.929C18.3193 21.307 17.8543 21.604 17.3083 21.82C16.7683 22.036 16.1713 22.144 15.5173 22.144C14.8693 22.144 14.2813 22.042 13.7533 21.838C13.2253 21.628 12.7753 21.334 12.4033 20.956C12.0373 20.572 11.7523 20.11 11.5483 19.57C11.3503 19.024 11.2513 18.415 11.2513 17.743C11.2513 17.179 11.3743 16.579 11.6203 15.943C11.8723 15.301 12.2713 14.617 12.8173 13.891L16.0933 9.49C16.1773 9.382 16.2913 9.292 16.4353 9.22C16.5853 9.142 16.7563 9.103 16.9483 9.103H18.3703L14.5453 13.936Z" fill="white"/>
</g>
<defs>
<clipPath id="clip0_347_3">
<rect width="31.7461" height="31.746" fill="white" transform="translate(0.127197 0.126953)"/>
</clipPath>
</defs>
</svg>
