<svg width="22" height="22" viewBox="0 0 22 22" fill="none" xmlns="http://www.w3.org/2000/svg">
<path d="M18.8383 1H16.0391C15.7155 1 15.4531 1.26234 15.4531 1.58594C15.4531 1.90953 15.7155 2.17188 16.0391 2.17188H18.8383C19.3841 2.17188 19.8281 2.61594 19.8281 3.16176V5.96094C19.8281 6.28453 20.0905 6.54688 20.4141 6.54688C20.7377 6.54688 21 6.28453 21 5.96094V3.16176C21 1.96977 20.0302 1 18.8383 1Z" fill="#858585"/>
<path d="M1.58594 6.54688C1.90953 6.54688 2.17188 6.28453 2.17188 5.96094V3.16176C2.17188 2.61594 2.61594 2.17188 3.16172 2.17188H5.96094C6.28454 2.17188 6.54688 1.90953 6.54688 1.58594C6.54688 1.26234 6.28454 1 5.96094 1H3.16172C1.96977 1 1 1.96977 1 3.16176V5.96094C1 6.28453 1.26234 6.54688 1.58594 6.54688Z" fill="#858585"/>
<path d="M5.96094 19.8281H3.16172C2.61594 19.8281 2.17188 19.3841 2.17188 18.8382V16.0391C2.17188 15.7155 1.90953 15.4531 1.58594 15.4531C1.26234 15.4531 1 15.7155 1 16.0391V18.8382C1 20.0302 1.96977 21 3.16172 21H5.96094C6.28454 21 6.54688 20.7377 6.54688 20.4141C6.54688 20.0905 6.28454 19.8281 5.96094 19.8281Z" fill="#858585"/>
<path d="M20.4141 15.4531C20.0905 15.4531 19.8281 15.7155 19.8281 16.0391V18.8382C19.8281 19.3841 19.3841 19.8281 18.8383 19.8281H16.0391C15.7155 19.8281 15.4531 20.0905 15.4531 20.4141C15.4531 20.7377 15.7155 21 16.0391 21H18.8383C20.0303 21 21 20.0302 21 18.8382V16.0391C21 15.7155 20.7377 15.4531 20.4141 15.4531Z" fill="#858585"/>
<path d="M9.03394 10.246C9.48194 10.15 9.89394 10.102 10.2699 10.102C10.7179 10.102 11.1139 10.168 11.4579 10.3C11.8019 10.432 12.0879 10.614 12.3159 10.846C12.5479 11.078 12.7219 11.352 12.8379 11.668C12.9579 11.984 13.0179 12.328 13.0179 12.7C13.0179 13.156 12.9379 13.568 12.7779 13.936C12.6219 14.304 12.4039 14.62 12.1239 14.884C11.8479 15.144 11.5219 15.344 11.1459 15.484C10.7699 15.624 10.3639 15.694 9.92794 15.694C9.67594 15.694 9.43394 15.668 9.20194 15.616C8.96994 15.568 8.75194 15.502 8.54794 15.418C8.34794 15.334 8.16194 15.238 7.98994 15.13C7.81794 15.022 7.66594 14.908 7.53394 14.788L7.86394 14.332C7.93594 14.228 8.02994 14.176 8.14594 14.176C8.22594 14.176 8.31594 14.208 8.41594 14.272C8.51594 14.332 8.63794 14.4 8.78194 14.476C8.92594 14.552 9.09394 14.622 9.28594 14.686C9.48194 14.746 9.71394 14.776 9.98194 14.776C10.2819 14.776 10.5519 14.728 10.7919 14.632C11.0319 14.536 11.2379 14.4 11.4099 14.224C11.5819 14.044 11.7139 13.83 11.8059 13.582C11.8979 13.334 11.9439 13.056 11.9439 12.748C11.9439 12.48 11.9039 12.238 11.8239 12.022C11.7479 11.806 11.6299 11.622 11.4699 11.47C11.3139 11.318 11.1179 11.2 10.8819 11.116C10.6459 11.032 10.3699 10.99 10.0539 10.99C9.83794 10.99 9.61194 11.008 9.37594 11.044C9.14394 11.08 8.90594 11.138 8.66194 11.218L7.98994 11.02L8.67994 7H12.7539V7.468C12.7539 7.62 12.7059 7.746 12.6099 7.846C12.5179 7.942 12.3579 7.99 12.1299 7.99H9.42994L9.03394 10.246Z" fill="#858585"/>
</svg>
