<svg width="22" height="22" viewBox="0 0 22 22" fill="none" xmlns="http://www.w3.org/2000/svg">
<path d="M18.8383 1H16.0391C15.7155 1 15.4531 1.26234 15.4531 1.58594C15.4531 1.90953 15.7155 2.17188 16.0391 2.17188H18.8383C19.3841 2.17188 19.8281 2.61594 19.8281 3.16176V5.96094C19.8281 6.28453 20.0905 6.54688 20.4141 6.54688C20.7377 6.54688 21 6.28453 21 5.96094V3.16176C21 1.96977 20.0302 1 18.8383 1Z" fill="#858585"/>
<path d="M1.58594 6.54688C1.90953 6.54688 2.17188 6.28453 2.17188 5.96094V3.16176C2.17188 2.61594 2.61594 2.17188 3.16172 2.17188H5.96094C6.28454 2.17188 6.54688 1.90953 6.54688 1.58594C6.54688 1.26234 6.28454 1 5.96094 1H3.16172C1.96977 1 1 1.96977 1 3.16176V5.96094C1 6.28453 1.26234 6.54688 1.58594 6.54688Z" fill="#858585"/>
<path d="M5.96094 19.8281H3.16172C2.61594 19.8281 2.17188 19.3841 2.17188 18.8382V16.0391C2.17188 15.7155 1.90953 15.4531 1.58594 15.4531C1.26234 15.4531 1 15.7155 1 16.0391V18.8382C1 20.0302 1.96977 21 3.16172 21H5.96094C6.28454 21 6.54688 20.7377 6.54688 20.4141C6.54688 20.0905 6.28454 19.8281 5.96094 19.8281Z" fill="#858585"/>
<path d="M20.4141 15.4531C20.0905 15.4531 19.8281 15.7155 19.8281 16.0391V18.8382C19.8281 19.3841 19.3841 19.8281 18.8383 19.8281H16.0391C15.7155 19.8281 15.4531 20.0905 15.4531 20.4141C15.4531 20.7377 15.7155 21 16.0391 21H18.8383C20.0303 21 21 20.0302 21 18.8382V16.0391C21 15.7155 20.7377 15.4531 20.4141 15.4531Z" fill="#858585"/>
<path d="M13.124 14.8V15.616H8.516V14.8H10.358V8.938C10.358 8.762 10.364 8.584 10.376 8.404L8.846 9.718C8.794 9.762 8.742 9.79 8.69 9.802C8.638 9.81 8.59 9.81 8.546 9.802C8.502 9.794 8.46 9.778 8.42 9.754C8.384 9.73 8.356 9.704 8.336 9.676L8 9.214L10.562 7H11.432V14.8H13.124Z" fill="#858585"/>
</svg>
