<svg width="22" height="22" viewBox="0 0 22 22" fill="none" xmlns="http://www.w3.org/2000/svg">
<path d="M18.8383 1H16.0391C15.7155 1 15.4531 1.26234 15.4531 1.58594C15.4531 1.90953 15.7155 2.17188 16.0391 2.17188H18.8383C19.3841 2.17188 19.8281 2.61594 19.8281 3.16176V5.96094C19.8281 6.28453 20.0905 6.54688 20.4141 6.54688C20.7377 6.54688 21 6.28453 21 5.96094V3.16176C21 1.96977 20.0302 1 18.8383 1Z" fill="#858585"/>
<path d="M1.58594 6.54688C1.90953 6.54688 2.17188 6.28453 2.17188 5.96094V3.16176C2.17188 2.61594 2.61594 2.17188 3.16172 2.17188H5.96094C6.28454 2.17188 6.54688 1.90953 6.54688 1.58594C6.54688 1.26234 6.28454 1 5.96094 1H3.16172C1.96977 1 1 1.96977 1 3.16176V5.96094C1 6.28453 1.26234 6.54688 1.58594 6.54688Z" fill="#858585"/>
<path d="M5.96094 19.8281H3.16172C2.61594 19.8281 2.17188 19.3841 2.17188 18.8382V16.0391C2.17188 15.7155 1.90953 15.4531 1.58594 15.4531C1.26234 15.4531 1 15.7155 1 16.0391V18.8382C1 20.0302 1.96977 21 3.16172 21H5.96094C6.28454 21 6.54688 20.7377 6.54688 20.4141C6.54688 20.0905 6.28454 19.8281 5.96094 19.8281Z" fill="#858585"/>
<path d="M20.4141 15.4531C20.0905 15.4531 19.8281 15.7155 19.8281 16.0391V18.8382C19.8281 19.3841 19.3841 19.8281 18.8383 19.8281H16.0391C15.7155 19.8281 15.4531 20.0905 15.4531 20.4141C15.4531 20.7377 15.7155 21 16.0391 21H18.8383C20.0303 21 21 20.0302 21 18.8382V16.0391C21 15.7155 20.7377 15.4531 20.4141 15.4531Z" fill="#858585"/>
<path d="M13.358 14.68C13.474 14.68 13.566 14.714 13.634 14.782C13.702 14.85 13.736 14.938 13.736 15.046V15.694H8V15.328C8 15.252 8.016 15.174 8.048 15.094C8.08 15.014 8.13 14.94 8.198 14.872L10.952 12.106C11.18 11.874 11.388 11.652 11.576 11.44C11.764 11.224 11.924 11.008 12.056 10.792C12.188 10.576 12.29 10.358 12.362 10.138C12.434 9.914 12.47 9.676 12.47 9.424C12.47 9.172 12.43 8.952 12.35 8.764C12.27 8.572 12.16 8.414 12.02 8.29C11.884 8.166 11.722 8.074 11.534 8.014C11.346 7.95 11.144 7.918 10.928 7.918C10.708 7.918 10.506 7.95 10.322 8.014C10.138 8.078 9.974 8.168 9.83 8.284C9.69 8.396 9.572 8.53 9.476 8.686C9.38 8.842 9.312 9.014 9.272 9.202C9.224 9.342 9.158 9.436 9.074 9.484C8.994 9.528 8.88 9.54 8.732 9.52L8.174 9.424C8.23 9.032 8.338 8.686 8.498 8.386C8.662 8.082 8.866 7.828 9.11 7.624C9.358 7.42 9.64 7.266 9.956 7.162C10.272 7.054 10.614 7 10.982 7C11.346 7 11.686 7.054 12.002 7.162C12.318 7.27 12.592 7.428 12.824 7.636C13.056 7.84 13.238 8.09 13.37 8.386C13.502 8.682 13.568 9.018 13.568 9.394C13.568 9.714 13.52 10.012 13.424 10.288C13.328 10.56 13.198 10.82 13.034 11.068C12.87 11.316 12.68 11.558 12.464 11.794C12.252 12.03 12.026 12.268 11.786 12.508L9.518 14.824C9.678 14.78 9.84 14.746 10.004 14.722C10.168 14.694 10.326 14.68 10.478 14.68H13.358Z" fill="#858585"/>
</svg>
