<svg width="228" height="228" viewBox="0 0 228 228" fill="none" xmlns="http://www.w3.org/2000/svg">
<g filter="url(#filter0_d_87_545)">
<path d="M200.221 0H169.43C165.87 0 162.984 2.88578 162.984 6.44531C162.984 10.0048 165.87 12.8906 169.43 12.8906H200.221C206.225 12.8906 211.109 17.7753 211.109 23.7793V54.5703C211.109 58.1298 213.995 61.0156 217.555 61.0156C221.114 61.0156 224 58.1298 224 54.5703V23.7793C224 10.6674 213.333 0 200.221 0Z" fill="white"/>
<path d="M10.4453 61.0156C14.0048 61.0156 16.8906 58.1298 16.8906 54.5703V23.7793C16.8906 17.7753 21.7753 12.8906 27.7789 12.8906H58.5703C62.1298 12.8906 65.0156 10.0048 65.0156 6.44531C65.0156 2.88578 62.1298 0 58.5703 0H27.7789C14.6674 0 4 10.6674 4 23.7793V54.5703C4 58.1298 6.88578 61.0156 10.4453 61.0156Z" fill="white"/>
<path d="M58.5703 207.109H27.7789C21.7753 207.109 16.8906 202.225 16.8906 196.221V165.43C16.8906 161.87 14.0048 158.984 10.4453 158.984C6.88578 158.984 4 161.87 4 165.43V196.221C4 209.333 14.6674 220 27.7789 220H58.5703C62.1298 220 65.0156 217.114 65.0156 213.555C65.0156 209.995 62.1298 207.109 58.5703 207.109Z" fill="white"/>
<path d="M217.555 158.984C213.995 158.984 211.109 161.87 211.109 165.43V196.221C211.109 202.225 206.225 207.109 200.221 207.109H169.43C165.87 207.109 162.984 209.995 162.984 213.555C162.984 217.114 165.87 220 169.43 220H200.221C213.333 220 224 209.333 224 196.221V165.43C224 161.87 221.114 158.984 217.555 158.984Z" fill="white"/>
</g>
<defs>
<filter id="filter0_d_87_545" x="0" y="0" width="228" height="228" filterUnits="userSpaceOnUse" color-interpolation-filters="sRGB">
<feFlood flood-opacity="0" result="BackgroundImageFix"/>
<feColorMatrix in="SourceAlpha" type="matrix" values="0 0 0 0 0 0 0 0 0 0 0 0 0 0 0 0 0 0 127 0" result="hardAlpha"/>
<feOffset dy="4"/>
<feGaussianBlur stdDeviation="2"/>
<feComposite in2="hardAlpha" operator="out"/>
<feColorMatrix type="matrix" values="0 0 0 0 0 0 0 0 0 0 0 0 0 0 0 0 0 0 0.15 0"/>
<feBlend mode="normal" in2="BackgroundImageFix" result="effect1_dropShadow_87_545"/>
<feBlend mode="normal" in="SourceGraphic" in2="effect1_dropShadow_87_545" result="shape"/>
</filter>
</defs>
</svg>
