<svg width="64" height="66" viewBox="0 0 64 66" fill="none" xmlns="http://www.w3.org/2000/svg">
<path d="M57.4695 22.2971C56.2154 22.2971 55.0521 22.6951 54.0937 23.3711C53.4533 20.7615 51.1205 18.8214 48.3476 18.8214C46.9556 18.8214 45.6751 19.3115 44.663 20.1286C43.7537 17.9988 41.659 16.5043 39.2253 16.5043C38.0465 16.5043 36.9481 16.8563 36.0244 17.4598V6.2784C36.0244 2.97299 33.3682 0.283936 30.1034 0.283936C26.8383 0.283936 24.1823 2.97299 24.1823 6.2784V36.7305L20.7654 33.516C19.2187 31.9617 17.1699 31.1068 14.9915 31.1068C14.9846 31.1068 14.9776 31.1068 14.9708 31.1068C12.7758 31.1122 10.7154 31.9848 9.16929 33.5638C7.76585 34.9968 7.77179 37.3227 9.18227 38.7489L29.3642 59.147C33.0682 63.2279 38.3213 65.5678 43.7865 65.5678C54.5964 65.5678 63.3908 56.6418 63.3908 45.6703V35.2429V34.0843V28.2913C63.3907 24.9862 60.7345 22.2971 57.4695 22.2971ZM60.6705 34.0844V35.2431V45.6704C60.6705 55.142 53.0964 62.8478 43.7864 62.8478C39.0712 62.8478 34.5367 60.8197 31.3456 57.2836C31.3364 57.2734 31.3261 57.2645 31.3166 57.2546C31.3115 57.2493 31.3074 57.2437 31.3022 57.2386L11.116 36.8357C10.7437 36.4593 10.7422 35.8452 11.1127 35.4668C12.1447 34.4129 13.5173 33.8306 14.9776 33.8269C14.9821 33.8269 14.9865 33.8269 14.9912 33.8269C16.4461 33.8269 17.8158 34.402 18.8496 35.4471C18.8611 35.4587 18.8727 35.47 18.8845 35.4812L24.6103 40.868C25.0057 41.2399 25.5843 41.341 26.0819 41.1259C26.58 40.9106 26.9024 40.4199 26.9024 39.8773V6.2784C26.9024 4.47299 28.3383 3.00407 30.1034 3.00407C31.8683 3.00407 33.3042 4.47299 33.3042 6.2784V25.9744C33.3042 25.9751 33.3044 25.9756 33.3044 25.9763V27.1329C33.3044 27.8841 33.9134 28.493 34.6644 28.493C35.4156 28.493 36.0245 27.884 36.0245 27.1329L36.0244 22.4985C36.0244 20.6931 37.4603 19.2243 39.2253 19.2243C40.9904 19.2243 42.4263 20.6931 42.4263 22.4985V24.8157V29.4501C42.4263 30.2013 43.0354 30.8102 43.7864 30.8102C44.5374 30.8102 45.1465 30.2012 45.1465 29.4501V24.8157C45.1465 23.0103 46.5824 21.5414 48.3474 21.5414C50.1124 21.5414 51.5483 23.0103 51.5483 24.8157V31.7672C51.5483 32.5184 52.1573 33.1273 52.9084 33.1273C53.6594 33.1273 54.2684 32.5182 54.2684 31.7672V28.2915C54.2684 26.486 55.7043 25.0171 57.4694 25.0171C59.2345 25.0171 60.6704 26.486 60.6704 28.2915V34.0844H60.6705Z" fill="#C3283B"/>
<path d="M12.0885 27.9207C12.0885 27.1695 11.4794 26.5606 10.7284 26.5606H5.25291L19.3784 12.4353V17.9107C19.3784 18.6618 19.9874 19.2707 20.7384 19.2707C21.4895 19.2707 22.0985 18.6617 22.0985 17.9107V9.15157C22.0985 8.4004 21.4895 7.7915 20.7384 7.7915H11.9796C11.2285 7.7915 10.6196 8.40054 10.6196 9.15157C10.6196 9.90261 11.2286 10.5116 11.9796 10.5116H17.455L3.32939 24.6371V19.1617C3.32939 18.4106 2.72036 17.8017 1.96932 17.8017C1.21829 17.8017 0.609253 18.4107 0.609253 19.1617V27.92C0.609253 27.9652 0.611601 28.0103 0.616022 28.0552C0.617817 28.0739 0.621409 28.0918 0.624033 28.1102C0.627625 28.1358 0.630664 28.1615 0.635775 28.1869C0.640057 28.2084 0.645997 28.2293 0.651246 28.2504C0.656633 28.2722 0.661606 28.2943 0.668098 28.3159C0.674452 28.3367 0.682188 28.3568 0.689509 28.3771C0.697106 28.3986 0.704289 28.4203 0.71313 28.4416C0.720865 28.4602 0.729982 28.4782 0.738547 28.4964C0.748907 28.5185 0.758714 28.5408 0.770317 28.5623C0.779434 28.5793 0.789794 28.5953 0.799464 28.6119C0.81231 28.6336 0.824604 28.6554 0.838694 28.6764C0.850573 28.6941 0.863834 28.7107 0.876404 28.7278C0.89008 28.7463 0.903064 28.7652 0.917845 28.7832C0.940775 28.8112 0.965501 28.8376 0.990641 28.8637C0.996443 28.8698 1.00155 28.8764 1.00749 28.8824C1.01316 28.888 1.01937 28.8927 1.02517 28.8983C1.05156 28.9238 1.07849 28.9488 1.10681 28.9722C1.1238 28.9861 1.14148 28.9981 1.15889 29.0111C1.17712 29.0247 1.1948 29.0387 1.21373 29.0515C1.23362 29.0648 1.25434 29.0763 1.27478 29.0886C1.29246 29.0991 1.30973 29.1103 1.32796 29.12C1.34855 29.131 1.36968 29.1403 1.39068 29.1502C1.40988 29.1593 1.42894 29.169 1.44869 29.1772C1.46886 29.1856 1.48958 29.1922 1.51003 29.1997C1.53144 29.2074 1.55257 29.2156 1.5744 29.2222C1.59484 29.2284 1.61556 29.233 1.63628 29.2381C1.65866 29.2437 1.68076 29.25 1.70355 29.2545C1.72745 29.2592 1.75148 29.262 1.77538 29.2654C1.79527 29.2683 1.81489 29.2721 1.83506 29.2741C1.87967 29.2785 1.92443 29.2809 1.96932 29.2809H10.7284C11.4794 29.2808 12.0885 28.6719 12.0885 27.9207Z" fill="#C3283B"/>
</svg>
